<svg xmlns="http://www.w3.org/2000/svg" ed:hSpacing="30" xmlns:xlink="http://www.w3.org/1999/xlink" xmlns:ed="https://www.edrawsoft.cn/xml/2017/SVGExtensions/" id="page100" height="437" ed:vSpacing="30" xmlns:ev="http://www.w3.org/2001/xml-events" width="803" ed:name="Page-1" viewBox="0 0 803 437"><style type="text/css"><![CDATA[
g[ed\:togtopicid],g[ed\:hyperlink],g[ed\:comment],g[ed\:note] {cursor:pointer;}
g[id] {-moz-user-select: none;-ms-user-select: none;user-select: none;}
svg text::selection,svg tspan::selection{background-color: #4285f4;color: #ffffff;fill: #ffffff;}
.st2 {fill:#303030;font-family:微软雅黑;font-size:12pt}
.st3 {fill:#454545;font-family:微软雅黑;font-size:10pt}
.st1 {fill:#ffffff;font-family:微软雅黑;font-size:14pt}
]]></style><defs><linearGradient x1="0%" y1="0%" id="lg1" y2="100%" x2="0%"><stop stop-color="#ffffff" offset="0"/><stop stop-color="#f0f5f0" offset="0.25"/><stop stop-color="#e1ebe1" offset="0.75"/><stop stop-color="#c8d7c8" offset="1"/></linearGradient></defs><rect x="0" y="0" height="437" width="803" fill="#ffffff"/><path transform="matrix(1,0,0,1,142,179)" id="103" ed:tosuperid="102" stroke-linecap="round" stroke="#696969" stroke-linejoin="round" d="M-9.5,11.5C10.1,-11.2,26,-39.5,60.5,-39.5" fill="none" ed:parentid="101"/><path transform="matrix(1,0,0,1,303,100)" id="105" ed:tosuperid="104" stroke-linecap="round" stroke="#696969" stroke-linejoin="round" d="M-13.5,39.6C4.7,39.6,-11.9,-39.6,13.5,-39.6" fill="none" ed:parentid="102"/><path transform="matrix(1,0,0,1,303,153)" id="107" ed:tosuperid="106" stroke-linecap="round" stroke="#696969" stroke-linejoin="round" d="M-13.5,-13.6C0.4,-13.6,-1.9,13.6,13.5,13.6" fill="none" ed:parentid="102"/><path transform="matrix(1,0,0,1,303,199)" id="109" ed:tosuperid="108" stroke-linecap="round" stroke="#696969" stroke-linejoin="round" d="M-13.5,-59.2C5.4,-59.2,-13.5,59.2,13.5,59.2" fill="none" ed:parentid="102"/><path transform="matrix(1,0,0,1,142,264)" id="111" ed:tosuperid="110" stroke-linecap="round" stroke="#696969" stroke-linejoin="round" d="M-13,-17.6C7.4,9.2,22,45.6,60.5,45.6" fill="none" ed:parentid="101"/><path transform="matrix(1,0,0,1,142,303)" id="113" ed:tosuperid="112" stroke-linecap="round" stroke="#696969" stroke-linejoin="round" d="M-23.8,-57.1C0.1,-8.8,0.6,85.1,60.5,85.1" fill="none" ed:parentid="101"/><path transform="matrix(1,0,0,1,402,151)" id="115" ed:tosuperid="114" stroke-linecap="round" stroke="#696969" stroke-linejoin="round" d="M-13.5,15.2C0.8,15.2,-2.7,-15.2,13.5,-15.2" fill="none" ed:parentid="106"/><path transform="matrix(1,0,0,1,402,182)" id="117" ed:tosuperid="116" stroke-linecap="round" stroke="#696969" stroke-linejoin="round" d="M-13.5,-15.2C0.8,-15.2,-2.7,15.2,13.5,15.2" fill="none" ed:parentid="106"/><path transform="matrix(1,0,0,1,490,121)" id="119" ed:tosuperid="118" stroke-linecap="round" stroke="#696969" stroke-linejoin="round" d="M-13.5,15.2C0.8,15.2,-2.7,-15.2,13.5,-15.2" fill="none" ed:parentid="114"/><path transform="matrix(1,0,0,1,490,136)" id="121" ed:tosuperid="120" stroke-linecap="round" stroke="#696969" stroke-linejoin="round" d="M-13.5,0C-2.7,0,5.4,0,13.5,0" fill="none" ed:parentid="114"/><path transform="matrix(1,0,0,1,490,151)" id="123" ed:tosuperid="122" stroke-linecap="round" stroke="#696969" stroke-linejoin="round" d="M-13.5,-15.2C0.8,-15.2,-2.7,15.2,13.5,15.2" fill="none" ed:parentid="114"/><path transform="matrix(1,0,0,1,402,197)" id="125" ed:tosuperid="124" stroke-linecap="round" stroke="#696969" stroke-linejoin="round" d="M-13.5,-30.4C3.6,-30.4,-9.2,30.4,13.5,30.4" fill="none" ed:parentid="106"/><path transform="matrix(1,0,0,1,400,53)" id="127" ed:tosuperid="126" stroke-linecap="round" stroke="#696969" stroke-linejoin="round" d="M-13.5,7.6C-0.9,7.6,1.3,-7.6,13.5,-7.6" fill="none" ed:parentid="104"/><path transform="matrix(1,0,0,1,400,68)" id="129" ed:tosuperid="128" stroke-linecap="round" stroke="#696969" stroke-linejoin="round" d="M-13.5,-7.6C-0.9,-7.6,1.3,7.6,13.5,7.6" fill="none" ed:parentid="104"/><path transform="matrix(1,0,0,1,429,258)" id="131" ed:tosuperid="130" stroke-linecap="round" stroke="#696969" stroke-linejoin="round" d="M-13.5,0C-2.7,0,5.4,0,13.5,0" fill="none" ed:parentid="108"/><path transform="matrix(1,0,0,1,364,387)" id="133" ed:tosuperid="132" stroke-linecap="round" stroke="#696969" stroke-linejoin="round" d="M-13.5,1.6C-2.3,1.6,4.5,-1.6,13.5,-1.6" fill="none" ed:parentid="112"/><path transform="matrix(1,0,0,1,364,402)" id="135" ed:tosuperid="134" stroke-linecap="round" stroke="#696969" stroke-linejoin="round" d="M-13.5,-13.6C0.4,-13.6,-1.9,13.6,13.5,13.6" fill="none" ed:parentid="112"/><g transform="matrix(1,0,0,1,23,190)" ed:width="116.2" ed:topictype="mainidea" id="101" ed:height="56" ed:layout="map"><path stroke-width="3" stroke="#435fbc" stroke-linejoin="round" d="M4,0L112.2,0C114.9,0,116.2,1.3,116.2,4L116.2,52C116.2,54.7,114.9,56,112.2,56L4,56C1.3,56,0,54.7,0,52L0,4C0,1.3,1.3,0,4,0z" fill="#435fbc"/><text class="st1"><tspan x="21" style="white-space:pre" y="34.3">k 近邻法</tspan></text></g><g transform="matrix(1,0,0,1,202,121)" ed:width="87" id="102" ed:height="37.6" ed:layout="rightmap" ed:parentid="101"><path stroke="#ebecf3" stroke-linejoin="round" d="M4,0L83,0C85.7,0,87,1.3,87,4L87,33.6C87,36.3,85.7,37.6,83,37.6L4,37.6C1.3,37.6,0,36.3,0,33.6L0,4C0,1.3,1.3,0,4,0z" fill="#ebecf3"/><text class="st2"><tspan x="18" style="white-space:pre" y="23.9">三要素</tspan></text></g><g transform="matrix(1,0,0,1,316,36)" ed:width="70" id="104" ed:height="23.9" ed:layout="rightmap" ed:parentid="102"><path stroke="#696969" stroke-linejoin="round" d="M0,23.9L70,23.9" fill="none"/><text class="st3"><tspan x="8" style="white-space:pre" y="16.1">k 值选择</tspan></text></g><g transform="matrix(1,0,0,1,316,143)" ed:width="72.40000000000001" id="106" ed:height="23.9" ed:layout="rightmap" ed:parentid="102"><path stroke="#696969" stroke-linejoin="round" d="M0,23.9L72.4,23.9" fill="none"/><text class="st3"><tspan x="8" style="white-space:pre" y="16.1">距离度量</tspan></text></g><g transform="matrix(1,0,0,1,316,234)" ed:width="99.59999999999999" id="108" ed:height="23.9" ed:layout="rightmap" ed:parentid="102"><path stroke="#696969" stroke-linejoin="round" d="M0,23.9L99.6,23.9" fill="none"/><text class="st3"><tspan x="8" style="white-space:pre" y="16.1">分类决策规则</tspan></text></g><g transform="matrix(1,0,0,1,202,291)" ed:width="103" id="110" ed:height="37.6" ed:layout="rightmap" ed:parentid="101"><path stroke="#ebecf3" stroke-linejoin="round" d="M4,0L99,0C101.7,0,103,1.3,103,4L103,33.6C103,36.3,101.7,37.6,99,37.6L4,37.6C1.3,37.6,0,36.3,0,33.6L0,4C0,1.3,1.3,0,4,0z" fill="#ebecf3"/><text class="st2"><tspan x="18" style="white-space:pre" y="23.9">算法描述</tspan></text></g><g transform="matrix(1,0,0,1,202,370)" ed:width="148.6" id="112" ed:height="37.6" ed:layout="rightmap" ed:parentid="101"><path stroke="#ebecf3" stroke-linejoin="round" d="M4,0L144.6,0C147.3,0,148.6,1.3,148.6,4L148.6,33.6C148.6,36.3,147.3,37.6,144.6,37.6L4,37.6C1.3,37.6,0,36.3,0,33.6L0,4C0,1.3,1.3,0,4,0z" fill="#ebecf3"/><text class="st2"><tspan x="18" style="white-space:pre" y="23.9">k 近邻法的实现</tspan></text></g><g transform="matrix(1,0,0,1,416,112)" ed:width="61.2" id="114" ed:height="23.9" ed:layout="rightmap" ed:parentid="106"><path stroke="#696969" stroke-linejoin="round" d="M0,23.9L61.2,23.9" fill="none"/><text class="st3"><tspan x="8" style="white-space:pre" y="16.1">Lp距离</tspan></text></g><g transform="matrix(1,0,0,1,416,173)" ed:width="114.8" id="116" ed:height="23.9" ed:layout="rightmap" ed:parentid="106"><path stroke="#696969" stroke-linejoin="round" d="M0,23.9L114.8,23.9" fill="none"/><text class="st3"><tspan x="8" style="white-space:pre" y="16.1">Minkowski距离</tspan></text></g><g transform="matrix(1,0,0,1,504,82)" ed:width="86" id="118" ed:height="23.9" ed:layout="rightmap" ed:parentid="114"><path stroke="#696969" stroke-linejoin="round" d="M0,23.9L86,23.9" fill="none"/><text class="st3"><tspan x="8" style="white-space:pre" y="16.1">曼哈顿距离</tspan></text></g><g transform="matrix(1,0,0,1,504,112)" ed:width="72.40000000000001" id="120" ed:height="23.9" ed:layout="rightmap" ed:parentid="114"><path stroke="#696969" stroke-linejoin="round" d="M0,23.9L72.4,23.9" fill="none"/><text class="st3"><tspan x="8" style="white-space:pre" y="16.1">欧式距离</tspan></text></g><g transform="matrix(1,0,0,1,504,143)" ed:width="126.8" id="122" ed:height="23.9" ed:layout="rightmap" ed:parentid="114"><path stroke="#696969" stroke-linejoin="round" d="M0,23.9L126.8,23.9" fill="none"/><text class="st3"><tspan x="8" style="white-space:pre" y="16.1">各坐标距离最大值</tspan></text></g><g transform="matrix(1,0,0,1,416,203)" ed:width="235.6" id="124" ed:height="23.9" ed:layout="rightmap" ed:parentid="106"><path stroke="#696969" stroke-linejoin="round" d="M0,23.9L235.6,23.9" fill="none"/><text class="st3"><tspan x="8" style="white-space:pre" y="16.1">不同距离度量所确定的最近邻点不同</tspan></text></g><g transform="matrix(1,0,0,1,413,21)" ed:width="369.2" id="126" ed:height="23.9" ed:layout="rightmap" ed:parentid="104"><path stroke="#696969" stroke-linejoin="round" d="M0,23.9L369.2,23.9" fill="none"/><text class="st3"><tspan x="8" style="white-space:pre" y="16.1">k 值较小，近似误差减小，估计误差增大，容易产生过拟合</tspan></text></g><g transform="matrix(1,0,0,1,413,51)" ed:width="293.2" id="128" ed:height="23.9" ed:layout="rightmap" ed:parentid="104"><path stroke="#696969" stroke-linejoin="round" d="M0,23.9L293.2,23.9" fill="none"/><text class="st3"><tspan x="8" style="white-space:pre" y="16.1">k 值增大，整体的模型变简单，极端情况 k=N</tspan></text></g><g transform="matrix(1,0,0,1,443,234)" ed:width="249.2" id="130" ed:height="23.9" ed:layout="rightmap" ed:parentid="108"><path stroke="#696969" stroke-linejoin="round" d="M0,23.9L249.2,23.9" fill="none"/><text class="st3"><tspan x="8" style="white-space:pre" y="16.1">多数表决规则，等价于经验风险最小化</tspan></text></g><g transform="matrix(1,0,0,1,378,361)" ed:width="334" id="132" ed:height="23.9" ed:layout="rightmap" ed:parentid="112"><path stroke="#696969" stroke-linejoin="round" d="M0,23.9L334,23.9" fill="none"/><text class="st3"><tspan x="8" style="white-space:pre" y="16.1">构造 kd 树（kd 树为平衡树，但搜索效率未必最优）</tspan></text></g><g transform="matrix(1,0,0,1,378,392)" ed:width="82.8" id="134" ed:height="23.9" ed:layout="rightmap" ed:parentid="112"><path stroke="#696969" stroke-linejoin="round" d="M0,23.9L82.8,23.9" fill="none"/><text class="st3"><tspan x="8" style="white-space:pre" y="16.1">搜索 kd 树</tspan></text></g><symbol id="plus"><path d="M11,6C11,8.8,8.8,11,6,11C3.2,11,1,8.8,1,6C1,3.2,3.2,1,6,1C8.8,1,11,3.2,11,6z" fill="url(#lg1)"/><path stroke-width="0.7" stroke="#46a000" d="M11,6C11,8.8,8.8,11,6,11C3.2,11,1,8.8,1,6C1,3.2,3.2,1,6,1C8.8,1,11,3.2,11,6zM3,6L9,6M6,3L6,9" fill="none"/></symbol><symbol id="minus"><path d="M11,6C11,8.8,8.8,11,6,11C3.2,11,1,8.8,1,6C1,3.2,3.2,1,6,1C8.8,1,11,3.2,11,6z" fill="url(#lg1)"/><path stroke-width="0.7" stroke="#46a000" d="M11,6C11,8.8,8.8,11,6,11C3.2,11,1,8.8,1,6C1,3.2,3.2,1,6,1C8.8,1,11,3.2,11,6zM3,6L9,6" fill="none"/></symbol><g transform="translate(140,212)" ed:togtopicid="101"><use xlink:href="#minus"/></g><g transform="translate(290,133)" ed:togtopicid="102"><use xlink:href="#minus"/></g><g transform="translate(387,42)" ed:togtopicid="104"><use xlink:href="#minus"/></g><g transform="translate(390,149)" ed:togtopicid="106"><use xlink:href="#minus"/></g><g transform="translate(417,240)" ed:togtopicid="108"><use xlink:href="#minus"/></g><g transform="translate(352,382)" ed:togtopicid="112"><use xlink:href="#minus"/></g><g transform="translate(478,118)" ed:togtopicid="114"><use xlink:href="#minus"/></g></svg>