<svg width="1057" viewBox="0 0 1057 605" xmlns="http://www.w3.org/2000/svg" xmlns:ev="http://www.w3.org/2001/xml-events" xmlns:xlink="http://www.w3.org/1999/xlink" ed:hSpacing="30" id="page100" ed:vSpacing="30" height="605" ed:name="Page-1" xmlns:ed="https://www.edrawsoft.cn/xml/2017/SVGExtensions/"><style type="text/css"><![CDATA[
g[ed\:togtopicid],g[ed\:hyperlink],g[ed\:comment],g[ed\:note] {cursor:pointer;}
g[id] {-moz-user-select: none;-ms-user-select: none;user-select: none;}
svg text::selection,svg tspan::selection{background-color: #4285f4;color: #ffffff;fill: #ffffff;}
.st2 {fill:#303030;font-family:微软雅黑;font-size:12pt}
.st3 {fill:#454545;font-family:微软雅黑;font-size:10pt}
.st1 {fill:#ffffff;font-family:微软雅黑;font-size:14pt}
]]></style><defs><linearGradient x2="0%" y1="0%" x1="0%" id="lg1" y2="100%"><stop offset="0" stop-color="#ffffff"/><stop offset="0.25" stop-color="#f0f5f0"/><stop offset="0.75" stop-color="#e1ebe1"/><stop offset="1" stop-color="#c8d7c8"/></linearGradient></defs><rect width="1057" x="0" fill="#ffffff" y="0" height="605"/><path fill="none" ed:tosuperid="102" transform="matrix(1,0,0,1,130,191)" stroke-linecap="round" id="103" ed:parentid="101" stroke="#696969" stroke-linejoin="round" d="M-24.9,84C-1,23.9,-13.2,-112.1,56.5,-112.1"/><path fill="none" ed:tosuperid="104" transform="matrix(1,0,0,1,130,257)" stroke-linecap="round" id="105" ed:parentid="101" stroke="#696969" stroke-linejoin="round" d="M-12.3,17.6C6.4,-9.2,19.5,-45.6,56.5,-45.6"/><path fill="none" ed:tosuperid="106" transform="matrix(1,0,0,1,130,369)" stroke-linecap="round" id="107" ed:parentid="101" stroke="#696969" stroke-linejoin="round" d="M-19,-38.5C1.6,0.5,7.8,66.5,56.5,66.5"/><path fill="none" ed:tosuperid="108" transform="matrix(1,0,0,1,271,62)" stroke-linecap="round" id="109" ed:parentid="102" stroke="#ff0000" stroke-linejoin="round" d="M-13.5,16.8C1.1,16.8,-3.5,-16.8,13.5,-16.8"/><path fill="none" ed:tosuperid="110" transform="matrix(1,0,0,1,271,77)" stroke-linecap="round" id="111" ed:parentid="102" stroke="#ff0000" stroke-linejoin="round" d="M-13.5,1.6C-2.3,1.6,4.5,-1.6,13.5,-1.6"/><path fill="none" ed:tosuperid="112" transform="matrix(1,0,0,1,271,92)" stroke-linecap="round" id="113" ed:parentid="102" stroke="#ff0000" stroke-linejoin="round" d="M-13.5,-13.6C0.4,-13.6,-1.9,13.6,13.5,13.6"/><path fill="none" ed:tosuperid="114" transform="matrix(1,0,0,1,271,107)" stroke-linecap="round" id="115" ed:parentid="102" stroke="#ff0000" stroke-linejoin="round" d="M-13.5,-28.8C3.3,-28.8,-8.6,28.8,13.5,28.8"/><path fill="none" ed:tosuperid="123" transform="matrix(1,0,0,1,303,202)" stroke-linecap="round" id="124" ed:parentid="104" stroke="#ff0000" stroke-linejoin="round" d="M-13.5,9.2C-0.6,9.2,0.4,-9.2,13.5,-9.2"/><path fill="none" ed:tosuperid="125" transform="matrix(1,0,0,1,303,225)" stroke-linecap="round" id="126" ed:parentid="104" stroke="#ff0000" stroke-linejoin="round" d="M-13.5,-13.6C0.4,-13.6,-1.9,13.6,13.5,13.6"/><path fill="none" ed:tosuperid="143" transform="matrix(1,0,0,1,443,231)" stroke-linecap="round" id="144" ed:parentid="125" stroke="#5e84ff" stroke-linejoin="round" d="M-13.5,7.6C-0.9,7.6,1.3,-7.6,13.5,-7.6"/><path fill="none" ed:tosuperid="147" transform="matrix(1,0,0,1,443,246)" stroke-linecap="round" id="148" ed:parentid="125" stroke="#5e84ff" stroke-linejoin="round" d="M-13.5,-7.6C-0.9,-7.6,1.3,7.6,13.5,7.6"/><path fill="none" ed:tosuperid="154" transform="matrix(1,0,0,1,483,388)" stroke-linecap="round" id="155" ed:parentid="106" stroke="#ff0000" stroke-linejoin="round" d="M-13.5,47.2C5.2,47.2,-13.1,-47.2,13.5,-47.2"/><path fill="none" ed:tosuperid="156" transform="matrix(1,0,0,1,483,487)" stroke-linecap="round" id="157" ed:parentid="106" stroke="#ff0000" stroke-linejoin="round" d="M-13.5,-51.6C5.4,-51.6,-13.5,51.6,13.5,51.6"/><path fill="none" ed:tosuperid="158" transform="matrix(1,0,0,1,583,326)" stroke-linecap="round" id="159" ed:parentid="154" stroke="#92d050" stroke-linejoin="round" d="M-13.5,15.2C0.8,15.2,-2.7,-15.2,13.5,-15.2"/><path fill="none" ed:tosuperid="160" transform="matrix(1,0,0,1,583,341)" stroke-linecap="round" id="161" ed:parentid="154" stroke="#92d050" stroke-linejoin="round" d="M-13.5,0C-2.7,0,5.4,0,13.5,0"/><path fill="none" ed:tosuperid="162" transform="matrix(1,0,0,1,583,356)" stroke-linecap="round" id="163" ed:parentid="154" stroke="#92d050" stroke-linejoin="round" d="M-13.5,-15.2C0.8,-15.2,-2.7,15.2,13.5,15.2"/><path fill="none" ed:tosuperid="164" transform="matrix(1,0,0,1,483,434)" stroke-linecap="round" id="165" ed:parentid="106" stroke="#ff0000" stroke-linejoin="round" d="M-13.5,1.6C-2.3,1.6,4.5,-1.6,13.5,-1.6"/><path fill="none" ed:tosuperid="166" transform="matrix(1,0,0,1,610,417)" stroke-linecap="round" id="167" ed:parentid="164" stroke="#92d050" stroke-linejoin="round" d="M-13.5,15.2C0.8,15.2,-2.7,-15.2,13.5,-15.2"/><path fill="none" ed:tosuperid="168" transform="matrix(1,0,0,1,610,432)" stroke-linecap="round" id="169" ed:parentid="164" stroke="#92d050" stroke-linejoin="round" d="M-13.5,0C-2.7,0,5.4,0,13.5,0"/><path fill="none" ed:tosuperid="170" transform="matrix(1,0,0,1,610,448)" stroke-linecap="round" id="171" ed:parentid="164" stroke="#92d050" stroke-linejoin="round" d="M-13.5,-15.2C0.8,-15.2,-2.7,15.2,13.5,15.2"/><path fill="none" ed:tosuperid="172" transform="matrix(1,0,0,1,583,516)" stroke-linecap="round" id="173" ed:parentid="156" stroke="#92d050" stroke-linejoin="round" d="M-13.5,22.8C2.3,22.8,-6.2,-22.8,13.5,-22.8"/><path fill="none" ed:tosuperid="174" transform="matrix(1,0,0,1,583,531)" stroke-linecap="round" id="175" ed:parentid="156" stroke="#92d050" stroke-linejoin="round" d="M-13.5,7.6C-0.9,7.6,1.3,-7.6,13.5,-7.6"/><path fill="none" ed:tosuperid="176" transform="matrix(1,0,0,1,583,546)" stroke-linecap="round" id="177" ed:parentid="156" stroke="#92d050" stroke-linejoin="round" d="M-13.5,-7.6C-0.9,-7.6,1.3,7.6,13.5,7.6"/><path fill="none" ed:tosuperid="178" transform="matrix(1,0,0,1,583,562)" stroke-linecap="round" id="179" ed:parentid="156" stroke="#92d050" stroke-linejoin="round" d="M-13.5,-22.8C2.3,-22.8,-6.2,22.8,13.5,22.8"/><g ed:topictype="mainidea" ed:height="56" transform="matrix(1,0,0,1,23,275)" id="101" ed:width="100.2" ed:layout="map"><path fill="#435fbc" stroke="#435fbc" stroke-width="3" d="M4,0L96.2,0C98.9,0,100.2,1.3,100.2,4L100.2,52C100.2,54.7,98.9,56,96.2,56L4,56C1.3,56,0,54.7,0,52L0,4C0,1.3,1.3,0,4,0z" stroke-linejoin="round"/><text class="st1"><tspan x="21" y="34.3" style="white-space:pre">感知机</tspan></text></g><g ed:height="37.6" transform="matrix(1,0,0,1,186,60)" id="102" ed:parentid="101" ed:width="71" ed:layout="rightmap"><path fill="#ebecf3" stroke="#ebecf3" d="M4,0L67,0C69.7,0,71,1.3,71,4L71,33.6C71,36.3,69.7,37.6,67,37.6L4,37.6C1.3,37.6,0,36.3,0,33.6L0,4C0,1.3,1.3,0,4,0z" stroke-linejoin="round"/><text class="st2"><tspan x="18" y="23.8" style="white-space:pre">模型</tspan></text></g><g ed:height="37.6" transform="matrix(1,0,0,1,186,193)" id="104" ed:parentid="101" ed:width="103" ed:layout="rightmap"><path fill="#ebecf3" stroke="#ebecf3" d="M4,0L99,0C101.7,0,103,1.3,103,4L103,33.6C103,36.3,101.7,37.6,99,37.6L4,37.6C1.3,37.6,0,36.3,0,33.6L0,4C0,1.3,1.3,0,4,0z" stroke-linejoin="round"/><text class="st2"><tspan x="18" y="23.8" style="white-space:pre">学习策略</tspan></text></g><g ed:height="37.6" transform="matrix(1,0,0,1,186,417)" id="106" ed:parentid="101" ed:width="283.8" ed:layout="rightmap"><path fill="#ebecf3" stroke="#ebecf3" d="M4,0L279.8,0C282.5,0,283.8,1.3,283.8,4L283.8,33.6C283.8,36.3,282.5,37.6,279.8,37.6L4,37.6C1.3,37.6,0,36.3,0,33.6L0,4C0,1.3,1.3,0,4,0z" stroke-linejoin="round"/><text class="st2"><tspan x="18" y="23.9" style="white-space:pre">算法 （求解损失函数最优化问题）</tspan></text></g><g ed:height="23.9" transform="matrix(1,0,0,1,284,21)" id="108" ed:parentid="102" ed:width="167.6" ed:layout="rightmap"><path fill="none" stroke="#ff0000" stroke-linejoin="round" d="M0,23.9L167.6,23.9"/><text class="st3"><tspan x="8" y="16.1" style="white-space:pre">定义：f(x)=sign(w·x+b)</tspan></text></g><g ed:height="23.9" transform="matrix(1,0,0,1,284,51)" id="110" ed:parentid="102" ed:width="99.59999999999999" ed:layout="rightmap"><path fill="none" stroke="#ff0000" stroke-linejoin="round" d="M0,23.9L99.6,23.9"/><text class="st3"><tspan x="8" y="16.1" style="white-space:pre">sign符号函数</tspan></text></g><g ed:height="23.9" transform="matrix(1,0,0,1,284,82)" id="112" ed:parentid="102" ed:width="176.4" ed:layout="rightmap"><path fill="none" stroke="#ff0000" stroke-linejoin="round" d="M0,23.9L176.4,23.9"/><text class="st3"><tspan x="8" y="16.1" style="white-space:pre">假设空间：{f|f(x)=w·x+b}</tspan></text></g><g ed:height="23.9" transform="matrix(1,0,0,1,284,112)" id="114" ed:parentid="102" ed:width="143.6" ed:layout="rightmap"><path fill="none" stroke="#ff0000" stroke-linejoin="round" d="M0,23.9L143.6,23.9"/><text class="st3"><tspan x="8" y="16.1" style="white-space:pre">几何解释:分离超平面</tspan></text></g><g ed:height="23.9" transform="matrix(1,0,0,1,316,169)" id="123" ed:parentid="104" ed:width="140.4" ed:layout="rightmap"><path fill="none" stroke="#ff0000" stroke-linejoin="round" d="M0,23.9L140.4,23.9"/><text class="st3"><tspan x="8" y="16.1" style="white-space:pre">数据集的线性可分性</tspan></text></g><g ed:height="23.9" transform="matrix(1,0,0,1,316,215)" id="125" ed:parentid="104" ed:width="113.2" ed:layout="rightmap"><path fill="none" stroke="#ff0000" stroke-linejoin="round" d="M0,23.9L113.2,23.9"/><text class="st3"><tspan x="8" y="16.1" style="white-space:pre">感知机学习策略</tspan></text></g><g ed:height="23.9" transform="matrix(1,0,0,1,456,200)" id="143" ed:parentid="125" ed:width="276.4" ed:layout="rightmap"><path fill="none" stroke="#5e84ff" stroke-linejoin="round" d="M0,23.9L276.4,23.9"/><text class="st3"><tspan x="8" y="16.1" style="white-space:pre">定义（经验）损失函数并将损失函数极小化</tspan></text></g><g ed:height="23.9" transform="matrix(1,0,0,1,456,230)" id="147" ed:parentid="125" ed:width="274" ed:layout="rightmap"><path fill="none" stroke="#5e84ff" stroke-linejoin="round" d="M0,23.9L274,23.9"/><text class="st3"><tspan x="8" y="16.1" style="white-space:pre">损失函数—>误差分类点到超平面的总距离</tspan></text></g><g ed:height="23.9" transform="matrix(1,0,0,1,497,317)" id="154" ed:parentid="106" ed:width="72.40000000000001" ed:layout="rightmap"><path fill="none" stroke="#ff0000" stroke-linejoin="round" d="M0,23.9L72.4,23.9"/><text class="st3"><tspan x="8" y="16.1" style="white-space:pre">原始形式</tspan></text></g><g ed:height="23.9" transform="matrix(1,0,0,1,497,515)" id="156" ed:parentid="106" ed:width="72.40000000000001" ed:layout="rightmap"><path fill="none" stroke="#ff0000" stroke-linejoin="round" d="M0,23.9L72.4,23.9"/><text class="st3"><tspan x="8" y="16.1" style="white-space:pre">对偶形式</tspan></text></g><g ed:height="23.9" transform="matrix(1,0,0,1,596,287)" id="158" ed:parentid="154" ed:width="113.2" ed:layout="rightmap"><path fill="none" stroke="#92d050" stroke-linejoin="round" d="M0,23.9L113.2,23.9"/><text class="st3"><tspan x="8" y="16.1" style="white-space:pre">随机梯度下降法</tspan></text></g><g ed:height="23.9" transform="matrix(1,0,0,1,596,317)" id="160" ed:parentid="154" ed:width="67.59999999999999" ed:layout="rightmap"><path fill="none" stroke="#92d050" stroke-linejoin="round" d="M0,23.9L67.6,23.9"/><text class="st3"><tspan x="7" y="16.1" style="white-space:pre">学习率η</tspan></text></g><g ed:height="23.9" transform="matrix(1,0,0,1,596,348)" id="162" ed:parentid="154" ed:width="72.40000000000001" ed:layout="rightmap"><path fill="none" stroke="#92d050" stroke-linejoin="round" d="M0,23.9L72.4,23.9"/><text class="st3"><tspan x="8" y="16.1" style="white-space:pre">算法描述</tspan></text></g><g ed:height="23.9" transform="matrix(1,0,0,1,497,408)" id="164" ed:parentid="106" ed:width="99.59999999999999" ed:layout="rightmap"><path fill="none" stroke="#ff0000" stroke-linejoin="round" d="M0,23.9L99.6,23.9"/><text class="st3"><tspan x="8" y="16.1" style="white-space:pre">算法的收敛性</tspan></text></g><g ed:height="23.9" transform="matrix(1,0,0,1,624,378)" id="166" ed:parentid="164" ed:width="106" ed:layout="rightmap"><path fill="none" stroke="#92d050" stroke-linejoin="round" d="M0,23.9L106,23.9"/><text class="st3"><tspan x="8" y="16.1" style="white-space:pre">Novikoff 定理</tspan></text></g><g ed:height="23.9" transform="matrix(1,0,0,1,624,408)" id="168" ed:parentid="164" ed:width="256.4" ed:layout="rightmap"><path fill="none" stroke="#92d050" stroke-linejoin="round" d="M0,23.9L256.4,23.9"/><text class="st3"><tspan x="7" y="16.1" style="white-space:pre">误分类次数k具有上界，即不能无限增加</tspan></text></g><g ed:height="23.9" transform="matrix(1,0,0,1,624,439)" id="170" ed:parentid="164" ed:width="412.4" ed:layout="rightmap"><path fill="none" stroke="#92d050" stroke-linejoin="round" d="M0,23.9L412.4,23.9"/><text class="st3"><tspan x="8" y="16.1" style="white-space:pre">存在多解性，为得到唯一超平面，需要对分离超平面增加约束条件</tspan></text></g><g ed:height="23.9" transform="matrix(1,0,0,1,596,469)" id="172" ed:parentid="156" ed:width="136.4" ed:layout="rightmap"><path fill="none" stroke="#92d050" stroke-linejoin="round" d="M0,23.9L136.4,23.9"/><text class="st3"><tspan x="8" y="16.1" style="white-space:pre">学习率改为αi=ni*η</tspan></text></g><g ed:height="23.9" transform="matrix(1,0,0,1,596,500)" id="174" ed:parentid="156" ed:width="439.6" ed:layout="rightmap"><path fill="none" stroke="#92d050" stroke-linejoin="round" d="M0,23.9L439.6,23.9"/><text class="st3"><tspan x="8" y="16.1" style="white-space:pre">实例点更新次数越多，意味着他离分离超平面越近，也就越难正确分类</tspan></text></g><g ed:height="23.9" transform="matrix(1,0,0,1,596,530)" id="176" ed:parentid="156" ed:width="298" ed:layout="rightmap"><path fill="none" stroke="#92d050" stroke-linejoin="round" d="M0,23.9L298,23.9"/><text class="st3"><tspan x="8" y="16.1" style="white-space:pre">Gram矩阵（预先计算训练集中实例间的内积）</tspan></text></g><g ed:height="23.9" transform="matrix(1,0,0,1,596,560)" id="178" ed:parentid="156" ed:width="72.40000000000001" ed:layout="rightmap"><path fill="none" stroke="#92d050" stroke-linejoin="round" d="M0,23.9L72.4,23.9"/><text class="st3"><tspan x="8" y="16.1" style="white-space:pre">算法描述</tspan></text></g><symbol id="plus"><path fill="url(#lg1)" d="M11,6C11,8.8,8.8,11,6,11C3.2,11,1,8.8,1,6C1,3.2,3.2,1,6,1C8.8,1,11,3.2,11,6z"/><path fill="none" stroke="#46a000" stroke-width="0.7" d="M11,6C11,8.8,8.8,11,6,11C3.2,11,1,8.8,1,6C1,3.2,3.2,1,6,1C8.8,1,11,3.2,11,6zM3,6L9,6M6,3L6,9"/></symbol><symbol id="minus"><path fill="url(#lg1)" d="M11,6C11,8.8,8.8,11,6,11C3.2,11,1,8.8,1,6C1,3.2,3.2,1,6,1C8.8,1,11,3.2,11,6z"/><path fill="none" stroke="#46a000" stroke-width="0.7" d="M11,6C11,8.8,8.8,11,6,11C3.2,11,1,8.8,1,6C1,3.2,3.2,1,6,1C8.8,1,11,3.2,11,6zM3,6L9,6"/></symbol><g ed:togtopicid="101" transform="translate(124,297)"><use xlink:href="#minus"/></g><g ed:togtopicid="102" transform="translate(258,73)"><use xlink:href="#minus"/></g><g ed:togtopicid="104" transform="translate(290,205)"><use xlink:href="#minus"/></g><g ed:togtopicid="106" transform="translate(471,430)"><use xlink:href="#minus"/></g><g ed:togtopicid="125" transform="translate(430,221)"><use xlink:href="#minus"/></g><g ed:togtopicid="154" transform="translate(570,323)"><use xlink:href="#minus"/></g><g ed:togtopicid="156" transform="translate(570,521)"><use xlink:href="#minus"/></g><g ed:togtopicid="164" transform="translate(598,414)"><use xlink:href="#minus"/></g></svg>