<svg height="1177" viewBox="0 0 1247 1177" ed:name="Page-1" xmlns:ed="https://www.edrawsoft.cn/xml/2017/SVGExtensions/" xmlns:ev="http://www.w3.org/2001/xml-events" xmlns:xlink="http://www.w3.org/1999/xlink" width="1247" xmlns="http://www.w3.org/2000/svg" id="page100" ed:hSpacing="30" ed:vSpacing="30"><style type="text/css"><![CDATA[
g[ed\:togtopicid],g[ed\:hyperlink],g[ed\:comment],g[ed\:note] {cursor:pointer;}
g[id] {-moz-user-select: none;-ms-user-select: none;user-select: none;}
svg text::selection,svg tspan::selection{background-color: #4285f4;color: #ffffff;fill: #ffffff;}
.st2 {fill:#303030;font-family:微软雅黑;font-size:12pt}
.st3 {fill:#454545;font-family:微软雅黑;font-size:10pt}
.st4 {fill:#ffffff;font-family:微软雅黑;font-size:11pt}
.st1 {fill:#ffffff;font-family:微软雅黑;font-size:14pt}
]]></style><defs><linearGradient y2="100%" y1="0%" id="lg1" x1="0%" x2="0%"><stop stop-color="#ffffff" offset="0"/><stop stop-color="#f0f5f0" offset="0.25"/><stop stop-color="#e1ebe1" offset="0.75"/><stop stop-color="#c8d7c8" offset="1"/></linearGradient></defs><rect height="1177" fill="#ffffff" x="0" y="0" width="1247"/><g ed:fromid="116" ed:toid="118" transform="matrix(1,0,0,1,570,256)" ed:type="relation" id="119"><path fill="none" d="M-165.9,99.4C-100,96.7,100,-96.7,165.9,-99.4"/><path stroke="#f38590" fill="none" stroke-linejoin="round" stroke-linecap="round" d="M-165.9,99.4C-101.8,96.8,89,-86,160.1,-98.7"/><path fill="#f38590" stroke="#f38590" stroke-width="1" stroke-linecap="round" d="M165.9,-99.4L158.5,-102.6C159.3,-101.5,159.9,-100.2,160.1,-98.7C160.2,-97.3,160,-95.9,159.4,-94.6L165.9,-99.4"/></g><g ed:fromid="116" ed:toid="142" transform="matrix(1,0,0,1,583,359)" ed:type="relation" id="143"><path fill="none" d="M-202.4,16.2C-154.8,90.8,154.8,-90.8,202.4,-16.2"/><path stroke="#f38590" fill="none" stroke-linejoin="round" stroke-linecap="round" d="M-202.4,16.2C-155.9,89.2,141.1,-82.9,198.8,-20.9"/><path fill="#f38590" stroke="#f38590" stroke-width="1" stroke-linecap="round" d="M202.4,-16.2L201.3,-24.2C200.8,-22.9,200,-21.8,198.8,-20.9C197.7,-20,196.3,-19.4,195,-19.3L202.4,-16.2"/></g><g ed:fromid="116" ed:toid="155" transform="matrix(1,0,0,1,579,409)" ed:type="relation" id="156"><path fill="none" d="M-218.5,-33.6C-235.8,5.4,235.8,-5.4,218.5,33.6"/><path stroke="#f38590" fill="none" stroke-linejoin="round" stroke-linecap="round" d="M-218.5,-33.6C-234.9,3.5,190.3,-4.4,217.6,28.2"/><path fill="#f38590" stroke="#f38590" stroke-width="1" stroke-linecap="round" d="M218.5,33.6L221.3,26.1C220.2,27,219,27.6,217.5,27.8C216.1,28.1,214.7,27.9,213.4,27.4L218.5,33.6"/></g><path stroke="#ffc000" fill="none" ed:tosuperid="104" stroke-linejoin="round" transform="matrix(1,0,0,1,450,185)" stroke-linecap="round" id="105" d="M-13.5,32C-13.5,-6.4,-2.7,-32,13.5,-32" ed:parentid="102"/><path stroke="#ffc000" fill="none" ed:tosuperid="106" stroke-linejoin="round" transform="matrix(1,0,0,1,450,200)" stroke-linecap="round" id="107" d="M-13.5,16.8C-13.5,-3.4,-2.7,-16.8,13.5,-16.8" ed:parentid="102"/><path stroke="#ffc000" fill="none" ed:tosuperid="108" stroke-linejoin="round" transform="matrix(1,0,0,1,450,215)" stroke-linecap="round" id="109" d="M-13.5,1.6C-13.5,-0.3,-2.7,-1.6,13.5,-1.6" ed:parentid="102"/><path stroke="#ffc000" fill="none" ed:tosuperid="110" stroke-linejoin="round" transform="matrix(1,0,0,1,450,231)" stroke-linecap="round" id="111" d="M-13.5,-13.6C-13.5,2.7,-2.7,13.6,13.5,13.6" ed:parentid="102"/><path stroke="#ffc000" fill="none" ed:tosuperid="112" stroke-linejoin="round" transform="matrix(1,0,0,1,450,246)" stroke-linecap="round" id="113" d="M-13.5,-28.8C-13.5,5.8,-2.7,28.8,13.5,28.8" ed:parentid="102"/><path stroke="#ffc000" fill="none" ed:tosuperid="114" stroke-linejoin="round" transform="matrix(1,0,0,1,450,261)" stroke-linecap="round" id="115" d="M-13.5,-44C-13.5,8.8,-2.7,44,13.5,44" ed:parentid="102"/><path stroke="#696969" fill="none" ed:tosuperid="116" stroke-linejoin="round" transform="matrix(1,0,0,1,240,500)" stroke-linecap="round" id="117" d="M-46.7,115C0.5,43,-11.4,-142.9,93.3,-142.9" ed:parentid="101"/><path stroke="#696969" fill="none" ed:tosuperid="120" stroke-linejoin="round" transform="matrix(1,0,0,1,846,123)" stroke-linecap="round" id="121" d="M-13.5,32C3.8,32,-9.8,-32,13.5,-32" ed:parentid="118"/><path stroke="#696969" fill="none" ed:tosuperid="122" stroke-linejoin="round" transform="matrix(1,0,0,1,846,161)" stroke-linecap="round" id="123" d="M-13.5,-6C-1.3,-6,2.1,6,13.5,6" ed:parentid="118"/><path stroke="#696969" fill="none" ed:tosuperid="124" stroke-linejoin="round" transform="matrix(1,0,0,1,846,199)" stroke-linecap="round" id="125" d="M-13.5,-44C5.1,-44,-12.7,44,13.5,44" ed:parentid="118"/><path stroke="#696969" fill="none" ed:tosuperid="126" stroke-linejoin="round" transform="matrix(1,0,0,1,946,68)" stroke-linecap="round" id="127" d="M-13.5,22.8C2.3,22.8,-6.2,-22.8,13.5,-22.8" ed:parentid="120"/><path stroke="#696969" fill="none" ed:tosuperid="128" stroke-linejoin="round" transform="matrix(1,0,0,1,946,83)" stroke-linecap="round" id="129" d="M-13.5,7.6C-0.9,7.6,1.3,-7.6,13.5,-7.6" ed:parentid="120"/><path stroke="#696969" fill="none" ed:tosuperid="130" stroke-linejoin="round" transform="matrix(1,0,0,1,946,98)" stroke-linecap="round" id="131" d="M-13.5,-7.6C-0.9,-7.6,1.3,7.6,13.5,7.6" ed:parentid="120"/><path stroke="#696969" fill="none" ed:tosuperid="132" stroke-linejoin="round" transform="matrix(1,0,0,1,946,113)" stroke-linecap="round" id="133" d="M-13.5,-22.8C2.3,-22.8,-6.2,22.8,13.5,22.8" ed:parentid="120"/><path stroke="#696969" fill="none" ed:tosuperid="134" stroke-linejoin="round" transform="matrix(1,0,0,1,946,220)" stroke-linecap="round" id="135" d="M-13.5,22.8C2.3,22.8,-6.2,-22.8,13.5,-22.8" ed:parentid="124"/><path stroke="#696969" fill="none" ed:tosuperid="136" stroke-linejoin="round" transform="matrix(1,0,0,1,946,235)" stroke-linecap="round" id="137" d="M-13.5,7.6C-0.9,7.6,1.3,-7.6,13.5,-7.6" ed:parentid="124"/><path stroke="#696969" fill="none" ed:tosuperid="138" stroke-linejoin="round" transform="matrix(1,0,0,1,946,250)" stroke-linecap="round" id="139" d="M-13.5,-7.6C-0.9,-7.6,1.3,7.6,13.5,7.6" ed:parentid="124"/><path stroke="#696969" fill="none" ed:tosuperid="140" stroke-linejoin="round" transform="matrix(1,0,0,1,946,265)" stroke-linecap="round" id="141" d="M-13.5,-22.8C2.3,-22.8,-6.2,22.8,13.5,22.8" ed:parentid="124"/><path stroke="#696969" fill="none" ed:tosuperid="144" stroke-linejoin="round" transform="matrix(1,0,0,1,866,351)" stroke-linecap="round" id="145" d="M-13.5,9.2C-0.6,9.2,0.4,-9.2,13.5,-9.2" ed:parentid="142"/><path stroke="#696969" fill="none" ed:tosuperid="146" stroke-linejoin="round" transform="matrix(1,0,0,1,866,374)" stroke-linecap="round" id="147" d="M-13.5,-13.6C0.4,-13.6,-1.9,13.6,13.5,13.6" ed:parentid="142"/><path stroke="#696969" fill="none" ed:tosuperid="148" stroke-linejoin="round" transform="matrix(1,0,0,1,866,389)" stroke-linecap="round" id="149" d="M-13.5,-28.8C3.3,-28.8,-8.6,28.8,13.5,28.8" ed:parentid="142"/><path stroke="#696969" fill="none" ed:tosuperid="150" stroke-linejoin="round" transform="matrix(1,0,0,1,1047,335)" stroke-linecap="round" id="151" d="M-13.5,7.6C-0.9,7.6,1.3,-7.6,13.5,-7.6" ed:parentid="144"/><path stroke="#696969" fill="none" ed:tosuperid="152" stroke-linejoin="round" transform="matrix(1,0,0,1,1047,350)" stroke-linecap="round" id="153" d="M-13.5,-7.6C-0.9,-7.6,1.3,7.6,13.5,7.6" ed:parentid="144"/><path stroke="#696969" fill="none" ed:tosuperid="102" stroke-linejoin="round" transform="matrix(1,0,0,1,240,430)" stroke-linecap="round" id="154" d="M-51.3,184.8C3,90,-39.9,-212.8,93.3,-212.8" ed:parentid="101"/><path stroke="#696969" fill="none" ed:tosuperid="157" stroke-linejoin="round" transform="matrix(1,0,0,1,852,459)" stroke-linecap="round" id="158" d="M-13.5,1.6C-2.3,1.6,4.5,-1.6,13.5,-1.6" ed:parentid="155"/><path stroke="#696969" fill="none" ed:tosuperid="159" stroke-linejoin="round" transform="matrix(1,0,0,1,852,474)" stroke-linecap="round" id="160" d="M-13.5,-13.6C0.4,-13.6,-1.9,13.6,13.5,13.6" ed:parentid="155"/><path stroke="#696969" fill="none" ed:tosuperid="161" stroke-linejoin="round" transform="matrix(1,0,0,1,240,547)" stroke-linecap="round" id="163" d="M-40,67.9C2.2,14.6,11.9,-95.9,93.3,-95.9" ed:parentid="101"/><path stroke="#696969" fill="none" ed:tosuperid="164" stroke-linejoin="round" transform="matrix(1,0,0,1,240,598)" stroke-linecap="round" id="165" d="M-18.4,16.6C15.8,-9.5,42.9,-44.6,93.3,-44.6" ed:parentid="101"/><path stroke="#696969" fill="none" ed:tosuperid="166" stroke-linejoin="round" transform="matrix(1,0,0,1,498,442)" stroke-linecap="round" id="167" d="M-13.5,9.2C-13.5,-1.8,-2.7,-9.2,13.5,-9.2" ed:parentid="161"/><path stroke="#696969" fill="none" ed:tosuperid="170" stroke-linejoin="round" transform="matrix(1,0,0,1,498,457)" stroke-linecap="round" id="171" d="M-13.5,-6C-13.5,1.2,-2.7,6,13.5,6" ed:parentid="161"/><path stroke="#696969" fill="none" ed:tosuperid="172" stroke-linejoin="round" transform="matrix(1,0,0,1,498,472)" stroke-linecap="round" id="173" d="M-13.5,-21.2C-13.5,4.2,-2.7,21.2,13.5,21.2" ed:parentid="161"/><path stroke="#696969" fill="none" ed:tosuperid="176" stroke-linejoin="round" transform="matrix(1,0,0,1,530,552)" stroke-linecap="round" id="177" d="M-13.5,1.6C-2.3,1.6,4.5,-1.6,13.5,-1.6" ed:parentid="164"/><path stroke="#696969" fill="none" ed:tosuperid="178" stroke-linejoin="round" transform="matrix(1,0,0,1,530,567)" stroke-linecap="round" id="179" d="M-13.5,-13.6C0.4,-13.6,-1.9,13.6,13.5,13.6" ed:parentid="164"/><path stroke="#696969" fill="none" ed:tosuperid="180" stroke-linejoin="round" transform="matrix(1,0,0,1,240,692)" stroke-linecap="round" id="181" d="M-22.2,-21.5C13.2,7.8,39.4,49.5,93.3,49.5" ed:parentid="101"/><path stroke="#696969" fill="none" ed:tosuperid="185" stroke-linejoin="round" transform="matrix(1,0,0,1,514,725)" stroke-linecap="round" id="186" d="M-13.5,16.8C1.1,16.8,-3.5,-16.8,13.5,-16.8" ed:parentid="180"/><path stroke="#696969" fill="none" ed:tosuperid="187" stroke-linejoin="round" transform="matrix(1,0,0,1,514,755)" stroke-linecap="round" id="188" d="M-13.5,-13.6C0.4,-13.6,-1.9,13.6,13.5,13.6" ed:parentid="180"/><path stroke="#696969" fill="none" ed:tosuperid="189" stroke-linejoin="round" transform="matrix(1,0,0,1,613,754)" stroke-linecap="round" id="190" d="M-13.5,15.2C0.8,15.2,-2.7,-15.2,13.5,-15.2" ed:parentid="187"/><path stroke="#696969" fill="none" ed:tosuperid="193" stroke-linejoin="round" transform="matrix(1,0,0,1,613,769)" stroke-linecap="round" id="194" d="M-13.5,0C-2.7,0,5.4,0,13.5,0" ed:parentid="187"/><path stroke="#696969" fill="none" ed:tosuperid="195" stroke-linejoin="round" transform="matrix(1,0,0,1,613,784)" stroke-linecap="round" id="196" d="M-13.5,-15.2C0.8,-15.2,-2.7,15.2,13.5,15.2" ed:parentid="187"/><path stroke="#696969" fill="none" ed:tosuperid="197" stroke-linejoin="round" transform="matrix(1,0,0,1,240,751)" stroke-linecap="round" id="198" d="M-42.3,-80.4C1.3,-21.8,5.4,108.4,93.3,108.4" ed:parentid="101"/><path stroke="#696969" fill="none" ed:tosuperid="199" stroke-linejoin="round" transform="matrix(1,0,0,1,450,858)" stroke-linecap="round" id="200" d="M-13.5,1.6C-2.3,1.6,4.5,-1.6,13.5,-1.6" ed:parentid="197"/><path stroke="#696969" fill="none" ed:tosuperid="201" stroke-linejoin="round" transform="matrix(1,0,0,1,450,873)" stroke-linecap="round" id="202" d="M-13.5,-13.6C0.4,-13.6,-1.9,13.6,13.5,13.6" ed:parentid="197"/><path stroke="#696969" fill="none" ed:tosuperid="207" stroke-linejoin="round" transform="matrix(1,0,0,1,240,637)" stroke-linecap="round" id="208" d="M30.4,-2C52,-3.7,72.7,-5.2,93.3,-5.2" ed:parentid="101"/><path stroke="#696969" fill="none" ed:tosuperid="209" stroke-linejoin="round" transform="matrix(1,0,0,1,240,840)" stroke-linecap="round" id="210" d="M-50.6,-169.6C2.3,-79.4,-34.4,197.6,93.3,197.6" ed:parentid="101"/><path stroke="#696969" fill="none" ed:tosuperid="211" stroke-linejoin="round" transform="matrix(1,0,0,1,482,1021)" stroke-linecap="round" id="212" d="M-13.5,16.8C1.1,16.8,-3.5,-16.8,13.5,-16.8" ed:parentid="209"/><path stroke="#696969" fill="none" ed:tosuperid="215" stroke-linejoin="round" transform="matrix(1,0,0,1,482,1074)" stroke-linecap="round" id="216" d="M-13.5,-36.4C4.4,-36.4,-11.1,36.4,13.5,36.4" ed:parentid="209"/><path stroke="#696969" fill="none" ed:tosuperid="217" stroke-linejoin="round" transform="matrix(1,0,0,1,482,1097)" stroke-linecap="round" id="218" d="M-13.5,-59.2C5.4,-59.2,-13.5,59.2,13.5,59.2" ed:parentid="209"/><path stroke="#696969" fill="none" ed:tosuperid="219" stroke-linejoin="round" transform="matrix(1,0,0,1,581,974)" stroke-linecap="round" id="220" d="M-13.5,30.4C3.6,30.4,-9.2,-30.4,13.5,-30.4" ed:parentid="211"/><path stroke="#696969" fill="none" ed:tosuperid="221" stroke-linejoin="round" transform="matrix(1,0,0,1,581,1012)" stroke-linecap="round" id="222" d="M-13.5,-7.6C-0.9,-7.6,1.3,7.6,13.5,7.6" ed:parentid="211"/><path stroke="#696969" fill="none" ed:tosuperid="223" stroke-linejoin="round" transform="matrix(1,0,0,1,681,997)" stroke-linecap="round" id="224" d="M-13.5,22.8C2.3,22.8,-6.2,-22.8,13.5,-22.8" ed:parentid="221"/><path stroke="#696969" fill="none" ed:tosuperid="225" stroke-linejoin="round" transform="matrix(1,0,0,1,681,1012)" stroke-linecap="round" id="226" d="M-13.5,7.6C-0.9,7.6,1.3,-7.6,13.5,-7.6" ed:parentid="221"/><path stroke="#696969" fill="none" ed:tosuperid="227" stroke-linejoin="round" transform="matrix(1,0,0,1,681,1027)" stroke-linecap="round" id="228" d="M-13.5,-7.6C-0.9,-7.6,1.3,7.6,13.5,7.6" ed:parentid="221"/><path stroke="#696969" fill="none" ed:tosuperid="229" stroke-linejoin="round" transform="matrix(1,0,0,1,681,1042)" stroke-linecap="round" id="230" d="M-13.5,-22.8C2.3,-22.8,-6.2,22.8,13.5,22.8" ed:parentid="221"/><path stroke="#696969" fill="none" ed:tosuperid="231" stroke-linejoin="round" transform="matrix(1,0,0,1,581,1103)" stroke-linecap="round" id="232" d="M-13.5,7.6C-0.9,7.6,1.3,-7.6,13.5,-7.6" ed:parentid="215"/><path stroke="#696969" fill="none" ed:tosuperid="233" stroke-linejoin="round" transform="matrix(1,0,0,1,581,1118)" stroke-linecap="round" id="234" d="M-13.5,-7.6C-0.9,-7.6,1.3,7.6,13.5,7.6" ed:parentid="215"/><g ed:topictype="mainidea" ed:layout="map" transform="matrix(1,0,0,1,23,615)" ed:width="247.4" ed:height="56" id="101"><path fill="#435fbc" stroke="#435fbc" stroke-linejoin="round" stroke-width="3" d="M4,0L243.4,0C246.1,0,247.4,1.3,247.4,4L247.4,52C247.4,54.7,246.1,56,243.4,56L4,56C1.3,56,0,54.7,0,52L0,4C0,1.3,1.3,0,4,0z"/><text class="st1"><tspan style="white-space:pre" x="21" y="34.3">统计学习及监督学习概论</tspan></text></g><g ed:layout="rightmap" transform="matrix(1,0,0,1,333,198)" ed:width="103" ed:height="37.6" id="102" ed:parentid="101"><path fill="#ebecf3" stroke="#ebecf3" stroke-linejoin="round" d="M4,0L99,0C101.7,0,103,1.3,103,4L103,33.6C103,36.3,101.7,37.6,99,37.6L4,37.6C1.3,37.6,0,36.3,0,33.6L0,4C0,1.3,1.3,0,4,0z"/><text class="st2"><tspan style="white-space:pre" x="18" y="23.8">统计学习</tspan></text></g><g ed:layout="rightmap" transform="matrix(1,0,0,1,463,129)" ed:width="45.2" ed:height="23.9" id="104" ed:parentid="102"><path stroke="#ffc000" fill="none" stroke-linejoin="round" d="M0,23.9L45.2,23.9"/><text class="st3"><tspan style="white-space:pre" x="8" y="16.1">特点</tspan></text></g><g ed:layout="rightmap" transform="matrix(1,0,0,1,463,159)" ed:width="45.2" ed:height="23.9" id="106" ed:parentid="102"><path fill="#ffffff" d="M0,0L45.2,0L45.2,23.9L0,23.9L0,0z"/><path stroke="#ffc000" fill="none" stroke-linejoin="round" d="M0,23.9L45.2,23.9"/><text class="st3"><tspan style="white-space:pre" x="8" y="16.1">对象</tspan></text></g><g ed:layout="rightmap" transform="matrix(1,0,0,1,463,190)" ed:width="45.2" ed:height="23.9" id="108" ed:parentid="102"><path stroke="#ffc000" fill="none" stroke-linejoin="round" d="M0,23.9L45.2,23.9"/><text class="st3"><tspan style="white-space:pre" x="8" y="16.1">目的</tspan></text></g><g ed:layout="rightmap" transform="matrix(1,0,0,1,463,220)" ed:width="45.2" ed:height="23.9" id="110" ed:parentid="102"><path stroke="#ffc000" fill="none" stroke-linejoin="round" d="M0,23.9L45.2,23.9"/><text class="st3"><tspan style="white-space:pre" x="8" y="16.1">方法</tspan></text></g><g ed:layout="rightmap" transform="matrix(1,0,0,1,463,251)" ed:width="45.2" ed:height="23.9" id="112" ed:parentid="102"><path stroke="#ffc000" fill="none" stroke-linejoin="round" d="M0,23.9L45.2,23.9"/><text class="st3"><tspan style="white-space:pre" x="8" y="16.1">研究</tspan></text></g><g ed:layout="rightmap" transform="matrix(1,0,0,1,463,281)" ed:width="58.8" ed:height="23.9" id="114" ed:parentid="102"><path stroke="#ffc000" fill="none" stroke-linejoin="round" d="M0,23.9L58.8,23.9"/><text class="st3"><tspan style="white-space:pre" x="8" y="16.1">重要性</tspan></text></g><g ed:layout="rightmap" transform="matrix(1,0,0,1,333,338)" ed:width="71" ed:height="37.6" id="116" ed:parentid="101"><path fill="#ebecf3" stroke="#ebecf3" stroke-linejoin="round" d="M4,0L67,0C69.7,0,71,1.3,71,4L71,33.6C71,36.3,69.7,37.6,67,37.6L4,37.6C1.3,37.6,0,36.3,0,33.6L0,4C0,1.3,1.3,0,4,0z"/><text class="st2"><tspan style="white-space:pre" x="18" y="23.8">分类</tspan></text></g><g ed:topictype="floating" ed:layout="rightmap" transform="matrix(1,0,0,1,736,137)" ed:width="96.59999999999999" ed:height="35.2" id="118"><path fill="#f38590" stroke="#f38590" stroke-linejoin="round" d="M4,0L92.6,0C95.3,0,96.6,1.3,96.6,4L96.6,31.2C96.6,33.9,95.3,35.2,92.6,35.2L4,35.2C1.3,35.2,0,33.9,0,31.2L0,4C0,1.3,1.3,0,4,0z"/><text class="st4"><tspan style="white-space:pre" x="18" y="22.3">基本分类</tspan></text></g><g transform="matrix(1,0,0,1,860,67)" ed:width="72.40000000000001" ed:height="23.9" id="120" ed:parentid="118"><path stroke="#696969" fill="none" stroke-linejoin="round" d="M0,23.9L72.4,23.9"/><text class="st3"><tspan style="white-space:pre" x="8" y="16.1">监督学习</tspan></text></g><g transform="matrix(1,0,0,1,860,143)" ed:width="86" ed:height="23.9" id="122" ed:parentid="118"><path stroke="#696969" fill="none" stroke-linejoin="round" d="M0,23.9L86,23.9"/><text class="st3"><tspan style="white-space:pre" x="8" y="16.1">无监督学习</tspan></text></g><g transform="matrix(1,0,0,1,860,219)" ed:width="72.40000000000001" ed:height="23.9" id="124" ed:parentid="118"><path stroke="#696969" fill="none" stroke-linejoin="round" d="M0,23.9L72.4,23.9"/><text class="st3"><tspan style="white-space:pre" x="8" y="16.1">强化学习</tspan></text></g><g transform="matrix(1,0,0,1,959,21)" ed:width="208.4" ed:height="23.9" id="126" ed:parentid="120"><path stroke="#696969" fill="none" stroke-linejoin="round" d="M0,23.9L208.4,23.9"/><text class="st3"><tspan style="white-space:pre" x="8" y="16.1">输入空间、特征空间和输出空间</tspan></text></g><g transform="matrix(1,0,0,1,959,51)" ed:width="99.59999999999999" ed:height="23.9" id="128" ed:parentid="120"><path stroke="#696969" fill="none" stroke-linejoin="round" d="M0,23.9L99.6,23.9"/><text class="st3"><tspan style="white-space:pre" x="8" y="16.1">联合概率分布</tspan></text></g><g transform="matrix(1,0,0,1,959,82)" ed:width="72.40000000000001" ed:height="23.9" id="130" ed:parentid="120"><path stroke="#696969" fill="none" stroke-linejoin="round" d="M0,23.9L72.4,23.9"/><text class="st3"><tspan style="white-space:pre" x="8" y="16.1">假设空间</tspan></text></g><g transform="matrix(1,0,0,1,959,112)" ed:width="99.59999999999999" ed:height="23.9" id="132" ed:parentid="120"><path stroke="#696969" fill="none" stroke-linejoin="round" d="M0,23.9L99.6,23.9"/><text class="st3"><tspan style="white-space:pre" x="8" y="16.1">问题的形式化</tspan></text></g><g transform="matrix(1,0,0,1,959,173)" ed:width="58.8" ed:height="23.9" id="134" ed:parentid="124"><path stroke="#696969" fill="none" stroke-linejoin="round" d="M0,23.9L58.8,23.9"/><text class="st3"><tspan style="white-space:pre" x="8" y="16.1">五元组</tspan></text></g><g transform="matrix(1,0,0,1,959,203)" ed:width="45.2" ed:height="23.9" id="136" ed:parentid="124"><path stroke="#696969" fill="none" stroke-linejoin="round" d="M0,23.9L45.2,23.9"/><text class="st3"><tspan style="white-space:pre" x="8" y="16.1">策略</tspan></text></g><g transform="matrix(1,0,0,1,959,234)" ed:width="72.40000000000001" ed:height="23.9" id="138" ed:parentid="124"><path stroke="#696969" fill="none" stroke-linejoin="round" d="M0,23.9L72.4,23.9"/><text class="st3"><tspan style="white-space:pre" x="8" y="16.1">价值函数</tspan></text></g><g transform="matrix(1,0,0,1,959,264)" ed:width="99.59999999999999" ed:height="23.9" id="140" ed:parentid="124"><path stroke="#696969" fill="none" stroke-linejoin="round" d="M0,23.9L99.6,23.9"/><text class="st3"><tspan style="white-space:pre" x="8" y="16.1">动作价值函数</tspan></text></g><g ed:topictype="floating" ed:layout="rightmap" transform="matrix(1,0,0,1,741,343)" ed:width="111" ed:height="35.2" id="142"><path fill="#f38590" stroke="#f38590" stroke-linejoin="round" d="M4,0L107,0C109.7,0,111,1.3,111,4L111,31.2C111,33.9,109.7,35.2,107,35.2L4,35.2C1.3,35.2,0,33.9,0,31.2L0,4C0,1.3,1.3,0,4,0z"/><text class="st4"><tspan style="white-space:pre" x="18" y="22.3">按模型分类</tspan></text></g><g transform="matrix(1,0,0,1,879,318)" ed:width="154" ed:height="23.9" id="144" ed:parentid="142"><path stroke="#696969" fill="none" stroke-linejoin="round" d="M0,23.9L154,23.9"/><text class="st3"><tspan style="white-space:pre" x="8" y="16.1">概率模型与非概率模型</tspan></text></g><g transform="matrix(1,0,0,1,879,364)" ed:width="154" ed:height="23.9" id="146" ed:parentid="142"><path stroke="#696969" fill="none" stroke-linejoin="round" d="M0,23.9L154,23.9"/><text class="st3"><tspan style="white-space:pre" x="8" y="16.1">线性模型与非线性模型</tspan></text></g><g transform="matrix(1,0,0,1,879,394)" ed:width="181.2" ed:height="23.9" id="148" ed:parentid="142"><path stroke="#696969" fill="none" stroke-linejoin="round" d="M0,23.9L181.2,23.9"/><text class="st3"><tspan style="white-space:pre" x="8" y="16.1">参数化模型与非参数化模型</tspan></text></g><g transform="matrix(1,0,0,1,1060,303)" ed:width="151.6" ed:height="23.9" id="150" ed:parentid="144"><path stroke="#696969" fill="none" stroke-linejoin="round" d="M0,23.9L151.6,23.9"/><text class="st3"><tspan style="white-space:pre" x="8" y="16.1">概率模型—>生成模型</tspan></text></g><g transform="matrix(1,0,0,1,1060,334)" ed:width="165.2" ed:height="23.9" id="152" ed:parentid="144"><path stroke="#696969" fill="none" stroke-linejoin="round" d="M0,23.9L165.2,23.9"/><text class="st3"><tspan style="white-space:pre" x="8" y="16.1">非概率模型—>判别模型</tspan></text></g><g ed:topictype="floating" ed:layout="rightmap" transform="matrix(1,0,0,1,741,443)" ed:width="96.59999999999999" ed:height="35.2" id="155"><path fill="#f38590" stroke="#f38590" stroke-linejoin="round" d="M4,0L92.6,0C95.3,0,96.6,1.3,96.6,4L96.6,31.2C96.6,33.9,95.3,35.2,92.6,35.2L4,35.2C1.3,35.2,0,33.9,0,31.2L0,4C0,1.3,1.3,0,4,0z"/><text class="st4"><tspan style="white-space:pre" x="18" y="22.3">按算法分</tspan></text></g><g transform="matrix(1,0,0,1,865,433)" ed:width="72.40000000000001" ed:height="23.9" id="157" ed:parentid="155"><path stroke="#696969" fill="none" stroke-linejoin="round" d="M0,23.9L72.4,23.9"/><text class="st3"><tspan style="white-space:pre" x="8" y="16.1">在线学习</tspan></text></g><g transform="matrix(1,0,0,1,865,464)" ed:width="72.40000000000001" ed:height="23.9" id="159" ed:parentid="155"><path stroke="#696969" fill="none" stroke-linejoin="round" d="M0,23.9L72.4,23.9"/><text class="st3"><tspan style="white-space:pre" x="8" y="16.1">批量学习</tspan></text></g><g ed:layout="rightmap" transform="matrix(1,0,0,1,333,432)" ed:width="151" ed:height="37.6" id="161" ed:parentid="101"><path fill="#ebecf3" stroke="#ebecf3" stroke-linejoin="round" d="M4,0L147,0C149.7,0,151,1.3,151,4L151,33.6C151,36.3,149.7,37.6,147,37.6L4,37.6C1.3,37.6,0,36.3,0,33.6L0,4C0,1.3,1.3,0,4,0z"/><text class="st2"><tspan style="white-space:pre" x="18" y="23.8">统计学习三要素</tspan></text></g><g ed:layout="rightmap" transform="matrix(1,0,0,1,333,535)" ed:width="183" ed:height="37.6" id="164" ed:parentid="101"><path fill="#ebecf3" stroke="#ebecf3" stroke-linejoin="round" d="M4,0L179,0C181.7,0,183,1.3,183,4L183,33.6C183,36.3,181.7,37.6,179,37.6L4,37.6C1.3,37.6,0,36.3,0,33.6L0,4C0,1.3,1.3,0,4,0z"/><text class="st2"><tspan style="white-space:pre" x="18" y="23.8">模型评估与模型选择</tspan></text></g><g ed:layout="rightmap" transform="matrix(1,0,0,1,511,409)" ed:width="45.2" ed:height="23.9" id="166" ed:parentid="161"><path stroke="#696969" fill="none" stroke-linejoin="round" d="M0,23.9L45.2,23.9"/><text class="st3"><tspan style="white-space:pre" x="8" y="16.1">模型</tspan></text></g><g ed:layout="rightmap" transform="matrix(1,0,0,1,511,439)" ed:width="45.2" ed:height="23.9" id="170" ed:parentid="161"><path stroke="#696969" fill="none" stroke-linejoin="round" d="M0,23.9L45.2,23.9"/><text class="st3"><tspan style="white-space:pre" x="8" y="16.1">策略</tspan></text></g><g ed:layout="rightmap" transform="matrix(1,0,0,1,511,469)" ed:width="45.2" ed:height="23.9" id="172" ed:parentid="161"><path stroke="#696969" fill="none" stroke-linejoin="round" d="M0,23.9L45.2,23.9"/><text class="st3"><tspan style="white-space:pre" x="8" y="16.1">算法</tspan></text></g><g ed:layout="rightmap" transform="matrix(1,0,0,1,543,526)" ed:width="140.4" ed:height="23.9" id="176" ed:parentid="164"><path stroke="#696969" fill="none" stroke-linejoin="round" d="M0,23.9L140.4,23.9"/><text class="st3"><tspan style="white-space:pre" x="8" y="16.1">训练误差与测试误差</tspan></text></g><g ed:layout="rightmap" transform="matrix(1,0,0,1,543,557)" ed:width="126.8" ed:height="23.9" id="178" ed:parentid="164"><path stroke="#696969" fill="none" stroke-linejoin="round" d="M0,23.9L126.8,23.9"/><text class="st3"><tspan style="white-space:pre" x="8" y="16.1">过拟合和模型选择</tspan></text></g><g ed:layout="rightmap" transform="matrix(1,0,0,1,333,723)" ed:width="167" ed:height="37.6" id="180" ed:parentid="101"><path fill="#ebecf3" stroke="#ebecf3" stroke-linejoin="round" d="M4,0L163,0C165.7,0,167,1.3,167,4L167,33.6C167,36.3,165.7,37.6,163,37.6L4,37.6C1.3,37.6,0,36.3,0,33.6L0,4C0,1.3,1.3,0,4,0z"/><text class="st2"><tspan style="white-space:pre" x="18" y="23.8">正则化与交叉检验</tspan></text></g><g ed:layout="rightmap" transform="matrix(1,0,0,1,527,684)" ed:width="58.8" ed:height="23.9" id="185" ed:parentid="180"><path stroke="#696969" fill="none" stroke-linejoin="round" d="M0,23.9L58.8,23.9"/><text class="st3"><tspan style="white-space:pre" x="8" y="16.1">正则化</tspan></text></g><g ed:layout="rightmap" transform="matrix(1,0,0,1,527,745)" ed:width="72.40000000000001" ed:height="23.9" id="187" ed:parentid="180"><path stroke="#696969" fill="none" stroke-linejoin="round" d="M0,23.9L72.4,23.9"/><text class="st3"><tspan style="white-space:pre" x="8" y="16.1">交叉检验</tspan></text></g><g ed:layout="rightmap" transform="matrix(1,0,0,1,627,715)" ed:width="99.59999999999999" ed:height="23.9" id="189" ed:parentid="187"><path stroke="#696969" fill="none" stroke-linejoin="round" d="M0,23.9L99.6,23.9"/><text class="st3"><tspan style="white-space:pre" x="8" y="16.1">简单交叉检验</tspan></text></g><g ed:layout="rightmap" transform="matrix(1,0,0,1,627,745)" ed:width="94" ed:height="23.9" id="193" ed:parentid="187"><path stroke="#696969" fill="none" stroke-linejoin="round" d="M0,23.9L94,23.9"/><text class="st3"><tspan style="white-space:pre" x="8" y="16.1">S折交叉检验</tspan></text></g><g ed:layout="rightmap" transform="matrix(1,0,0,1,627,775)" ed:width="99.59999999999999" ed:height="23.9" id="195" ed:parentid="187"><path stroke="#696969" fill="none" stroke-linejoin="round" d="M0,23.9L99.6,23.9"/><text class="st3"><tspan style="white-space:pre" x="8" y="16.1">留一交叉检验</tspan></text></g><g ed:layout="rightmap" transform="matrix(1,0,0,1,333,841)" ed:width="103" ed:height="37.6" id="197" ed:parentid="101"><path fill="#ebecf3" stroke="#ebecf3" stroke-linejoin="round" d="M4,0L99,0C101.7,0,103,1.3,103,4L103,33.6C103,36.3,101.7,37.6,99,37.6L4,37.6C1.3,37.6,0,36.3,0,33.6L0,4C0,1.3,1.3,0,4,0z"/><text class="st2"><tspan style="white-space:pre" x="18" y="23.8">泛化能力</tspan></text></g><g ed:layout="rightmap" transform="matrix(1,0,0,1,463,832)" ed:width="72.40000000000001" ed:height="23.9" id="199" ed:parentid="197"><path stroke="#696969" fill="none" stroke-linejoin="round" d="M0,23.9L72.4,23.9"/><text class="st3"><tspan style="white-space:pre" x="8" y="16.1">泛化误差</tspan></text></g><g ed:layout="rightmap" transform="matrix(1,0,0,1,463,863)" ed:width="99.59999999999999" ed:height="23.9" id="201" ed:parentid="197"><path stroke="#696969" fill="none" stroke-linejoin="round" d="M0,23.9L99.6,23.9"/><text class="st3"><tspan style="white-space:pre" x="8" y="16.1">泛化误差上界</tspan></text></g><g ed:layout="rightmap" transform="matrix(1,0,0,1,333,614)" ed:width="183" ed:height="37.6" id="207" ed:parentid="101"><path fill="#ebecf3" stroke="#ebecf3" stroke-linejoin="round" d="M4,0L179,0C181.7,0,183,1.3,183,4L183,33.6C183,36.3,181.7,37.6,179,37.6L4,37.6C1.3,37.6,0,36.3,0,33.6L0,4C0,1.3,1.3,0,4,0z"/><text class="st2"><tspan style="white-space:pre" x="18" y="23.8">生成模型与判别模型</tspan></text></g><g ed:layout="rightmap" transform="matrix(1,0,0,1,333,1019)" ed:width="135" ed:height="37.6" id="209" ed:parentid="101"><path fill="#ebecf3" stroke="#ebecf3" stroke-linejoin="round" d="M4,0L131,0C133.7,0,135,1.3,135,4L135,33.6C135,36.3,133.7,37.6,131,37.6L4,37.6C1.3,37.6,0,36.3,0,33.6L0,4C0,1.3,1.3,0,4,0z"/><text class="st2"><tspan style="white-space:pre" x="18" y="23.8">监督学习应用</tspan></text></g><g ed:layout="rightmap" transform="matrix(1,0,0,1,495,980)" ed:width="72.40000000000001" ed:height="23.9" id="211" ed:parentid="209"><path stroke="#696969" fill="none" stroke-linejoin="round" d="M0,23.9L72.4,23.9"/><text class="st3"><tspan style="white-space:pre" x="8" y="16.1">分类问题</tspan></text></g><g ed:layout="rightmap" transform="matrix(1,0,0,1,495,1087)" ed:width="72.40000000000001" ed:height="23.9" id="215" ed:parentid="209"><path stroke="#696969" fill="none" stroke-linejoin="round" d="M0,23.9L72.4,23.9"/><text class="st3"><tspan style="white-space:pre" x="8" y="16.1">标注问题</tspan></text></g><g ed:layout="rightmap" transform="matrix(1,0,0,1,495,1132)" ed:width="72.40000000000001" ed:height="23.9" id="217" ed:parentid="209"><path stroke="#696969" fill="none" stroke-linejoin="round" d="M0,23.9L72.4,23.9"/><text class="st3"><tspan style="white-space:pre" x="8" y="16.1">回归问题</tspan></text></g><g ed:layout="rightmap" transform="matrix(1,0,0,1,595,920)" ed:width="58.8" ed:height="23.9" id="219" ed:parentid="211"><path stroke="#696969" fill="none" stroke-linejoin="round" d="M0,23.9L58.8,23.9"/><text class="st3"><tspan style="white-space:pre" x="8" y="16.1">分类器</tspan></text></g><g ed:layout="rightmap" transform="matrix(1,0,0,1,595,996)" ed:width="72.40000000000001" ed:height="23.9" id="221" ed:parentid="211"><path stroke="#696969" fill="none" stroke-linejoin="round" d="M0,23.9L72.4,23.9"/><text class="st3"><tspan style="white-space:pre" x="8" y="16.1">评价指标</tspan></text></g><g ed:layout="rightmap" transform="matrix(1,0,0,1,694,950)" ed:width="86" ed:height="23.9" id="223" ed:parentid="221"><path stroke="#696969" fill="none" stroke-linejoin="round" d="M0,23.9L86,23.9"/><text class="st3"><tspan style="white-space:pre" x="8" y="16.1">分类准确率</tspan></text></g><g ed:layout="rightmap" transform="matrix(1,0,0,1,694,980)" ed:width="58.8" ed:height="23.9" id="225" ed:parentid="221"><path stroke="#696969" fill="none" stroke-linejoin="round" d="M0,23.9L58.8,23.9"/><text class="st3"><tspan style="white-space:pre" x="8" y="16.1">精确率</tspan></text></g><g ed:layout="rightmap" transform="matrix(1,0,0,1,694,1011)" ed:width="58.8" ed:height="23.9" id="227" ed:parentid="221"><path stroke="#696969" fill="none" stroke-linejoin="round" d="M0,23.9L58.8,23.9"/><text class="st3"><tspan style="white-space:pre" x="8" y="16.1">召回率</tspan></text></g><g ed:layout="rightmap" transform="matrix(1,0,0,1,694,1041)" ed:width="46.8" ed:height="23.9" id="229" ed:parentid="221"><path stroke="#696969" fill="none" stroke-linejoin="round" d="M0,23.9L46.8,23.9"/><text class="st3"><tspan style="white-space:pre" x="8" y="16.1">F1值</tspan></text></g><g ed:layout="rightmap" transform="matrix(1,0,0,1,595,1072)" ed:width="167.6" ed:height="23.9" id="231" ed:parentid="215"><path stroke="#696969" fill="none" stroke-linejoin="round" d="M0,23.9L167.6,23.9"/><text class="st3"><tspan style="white-space:pre" x="8" y="16.1">结构预测问题的简单形式</tspan></text></g><g ed:layout="rightmap" transform="matrix(1,0,0,1,595,1102)" ed:width="262.8" ed:height="23.9" id="233" ed:parentid="215"><path stroke="#696969" fill="none" stroke-linejoin="round" d="M0,23.9L262.8,23.9"/><text class="st3"><tspan style="white-space:pre" x="8" y="16.1">常用方法：隐马尔科夫模型、条件随机场</tspan></text></g><symbol id="plus"><path fill="url(#lg1)" d="M11,6C11,8.8,8.8,11,6,11C3.2,11,1,8.8,1,6C1,3.2,3.2,1,6,1C8.8,1,11,3.2,11,6z"/><path fill="none" stroke="#46a000" stroke-width="0.7" d="M11,6C11,8.8,8.8,11,6,11C3.2,11,1,8.8,1,6C1,3.2,3.2,1,6,1C8.8,1,11,3.2,11,6zM3,6L9,6M6,3L6,9"/></symbol><symbol id="minus"><path fill="url(#lg1)" d="M11,6C11,8.8,8.8,11,6,11C3.2,11,1,8.8,1,6C1,3.2,3.2,1,6,1C8.8,1,11,3.2,11,6z"/><path fill="none" stroke="#46a000" stroke-width="0.7" d="M11,6C11,8.8,8.8,11,6,11C3.2,11,1,8.8,1,6C1,3.2,3.2,1,6,1C8.8,1,11,3.2,11,6zM3,6L9,6"/></symbol><g transform="translate(271,637)" ed:togtopicid="101"><use xlink:href="#minus"/></g><g transform="translate(437,211)" ed:togtopicid="102"><use xlink:href="#minus"/></g><g transform="translate(834,149)" ed:togtopicid="118"><use xlink:href="#minus"/></g><g transform="translate(933,73)" ed:togtopicid="120"><use xlink:href="#minus"/></g><g transform="translate(933,225)" ed:togtopicid="124"><use xlink:href="#minus"/></g><g transform="translate(853,355)" ed:togtopicid="142"><use xlink:href="#minus"/></g><g transform="translate(1034,324)" ed:togtopicid="144"><use xlink:href="#minus"/></g><g transform="translate(839,454)" ed:togtopicid="155"><use xlink:href="#minus"/></g><g transform="translate(485,445)" ed:togtopicid="161"><use xlink:href="#minus"/></g><g transform="translate(517,547)" ed:togtopicid="164"><use xlink:href="#minus"/></g><g transform="translate(501,736)" ed:togtopicid="180"><use xlink:href="#minus"/></g><g transform="translate(601,751)" ed:togtopicid="187"><use xlink:href="#minus"/></g><g transform="translate(437,853)" ed:togtopicid="197"><use xlink:href="#minus"/></g><g transform="translate(469,1032)" ed:togtopicid="209"><use xlink:href="#minus"/></g><g transform="translate(569,986)" ed:togtopicid="211"><use xlink:href="#minus"/></g><g transform="translate(569,1093)" ed:togtopicid="215"><use xlink:href="#minus"/></g><g transform="translate(668,1001)" ed:togtopicid="221"><use xlink:href="#minus"/></g></svg>