<svg ed:name="Page-1" xmlns:xlink="http://www.w3.org/1999/xlink" xmlns:ev="http://www.w3.org/2001/xml-events" height="419" viewBox="0 0 620 419" width="620" id="page100" xmlns:ed="https://www.edrawsoft.cn/xml/2017/SVGExtensions/" xmlns="http://www.w3.org/2000/svg" ed:hSpacing="30" ed:vSpacing="30"><style type="text/css"><![CDATA[
g[ed\:togtopicid],g[ed\:hyperlink],g[ed\:comment],g[ed\:note] {cursor:pointer;}
g[id] {-moz-user-select: none;-ms-user-select: none;user-select: none;}
svg text::selection,svg tspan::selection{background-color: #4285f4;color: #ffffff;fill: #ffffff;}
.st2 {fill:#303030;font-family:微软雅黑;font-size:12pt}
.st3 {fill:#454545;font-family:微软雅黑;font-size:10pt}
.st1 {fill:#ffffff;font-family:微软雅黑;font-size:14pt}
]]></style><defs><linearGradient y1="0%" x2="0%" y2="100%" x1="0%" id="lg1"><stop offset="0" stop-color="#ffffff"/><stop offset="0.25" stop-color="#f0f5f0"/><stop offset="0.75" stop-color="#e1ebe1"/><stop offset="1" stop-color="#c8d7c8"/></linearGradient></defs><rect height="419" x="0" y="0" width="620" fill="#ffffff"/><path ed:tosuperid="102" stroke-linejoin="round" stroke-linecap="round" stroke="#696969" id="103" ed:parentid="101" fill="none" transform="matrix(1,0,0,1,143,136)" d="M-22,45.1C1.3,2.6,6.9,-73.1,61.2,-73.1"/><path ed:tosuperid="104" stroke-linejoin="round" stroke-linecap="round" stroke="#696969" id="105" ed:parentid="102" fill="none" transform="matrix(1,0,0,1,364,54)" d="M-13.5,9.2C-0.6,9.2,0.4,-9.2,13.5,-9.2"/><path ed:tosuperid="106" stroke-linejoin="round" stroke-linecap="round" stroke="#696969" id="107" ed:parentid="102" fill="none" transform="matrix(1,0,0,1,364,85)" d="M-13.5,-21.2C2,-21.2,-5.5,21.2,13.5,21.2"/><path ed:tosuperid="108" stroke-linejoin="round" stroke-linecap="round" stroke="#696969" id="109" ed:parentid="102" fill="none" transform="matrix(1,0,0,1,364,69)" d="M-13.5,-6C-1.3,-6,2.1,6,13.5,6"/><path ed:tosuperid="110" stroke-linejoin="round" stroke-linecap="round" stroke="#696969" id="111" ed:parentid="101" fill="none" transform="matrix(1,0,0,1,143,188)" d="M-1.9,2.4C17.3,-9.3,35.1,-21.8,61.2,-21.8"/><path ed:tosuperid="112" stroke-linejoin="round" stroke-linecap="round" stroke="#696969" id="113" ed:parentid="101" fill="none" transform="matrix(1,0,0,1,143,239)" d="M-1.9,-2.6C16.2,12.9,33.2,29.4,61.2,29.4"/><path ed:tosuperid="114" stroke-linejoin="round" stroke-linecap="round" stroke="#696969" id="115" ed:parentid="101" fill="none" transform="matrix(1,0,0,1,143,290)" d="M-23.4,-52.7C0.5,-6.5,3,80.7,61.2,80.7"/><path ed:tosuperid="116" stroke-linejoin="round" stroke-linecap="round" stroke="#696969" id="117" ed:parentid="110" fill="none" transform="matrix(1,0,0,1,353,164)" d="M-13.5,1.6C-2.3,1.6,4.5,-1.6,13.5,-1.6"/><path ed:tosuperid="118" stroke-linejoin="round" stroke-linecap="round" stroke="#696969" id="119" ed:parentid="110" fill="none" transform="matrix(1,0,0,1,353,179)" d="M-13.5,-13.6C0.4,-13.6,-1.9,13.6,13.5,13.6"/><path ed:tosuperid="120" stroke-linejoin="round" stroke-linecap="round" stroke="#696969" id="121" ed:parentid="112" fill="none" transform="matrix(1,0,0,1,353,259)" d="M-13.5,9.2C-0.6,9.2,0.4,-9.2,13.5,-9.2"/><path ed:tosuperid="122" stroke-linejoin="round" stroke-linecap="round" stroke="#696969" id="123" ed:parentid="112" fill="none" transform="matrix(1,0,0,1,353,274)" d="M-13.5,-6C-1.3,-6,2.1,6,13.5,6"/><path ed:tosuperid="124" stroke-linejoin="round" stroke-linecap="round" stroke="#696969" id="125" ed:parentid="112" fill="none" transform="matrix(1,0,0,1,353,290)" d="M-13.5,-21.2C2,-21.2,-5.5,21.2,13.5,21.2"/><path ed:tosuperid="126" stroke-linejoin="round" stroke-linecap="round" stroke="#696969" id="127" ed:parentid="114" fill="none" transform="matrix(1,0,0,1,305,369)" d="M-13.5,1.6C-2.3,1.6,4.5,-1.6,13.5,-1.6"/><path ed:tosuperid="128" stroke-linejoin="round" stroke-linecap="round" stroke="#696969" id="129" ed:parentid="114" fill="none" transform="matrix(1,0,0,1,305,384)" d="M-13.5,-13.6C0.4,-13.6,-1.9,13.6,13.5,13.6"/><g ed:layout="map" ed:height="56" ed:topictype="mainidea" id="101" ed:width="118.6" transform="matrix(1,0,0,1,23,182)"><path stroke-linejoin="round" stroke-width="3" stroke="#435fbc" fill="#435fbc" d="M4,0L114.6,0C117.3,0,118.6,1.3,118.6,4L118.6,52C118.6,54.7,117.3,56,114.6,56L4,56C1.3,56,0,54.7,0,52L0,4C0,1.3,1.3,0,4,0z"/><text class="st1"><tspan style="white-space:pre" x="21" y="34.3">提升方法</tspan></text></g><g ed:layout="rightmap" ed:height="37.6" id="102" ed:width="145.4" ed:parentid="101" transform="matrix(1,0,0,1,205,45)"><path stroke-linejoin="round" stroke="#ebecf3" fill="#ebecf3" d="M4,0L141.4,0C144.1,0,145.4,1.3,145.4,4L145.4,33.6C145.4,36.3,144.1,37.6,141.4,37.6L4,37.6C1.3,37.6,0,36.3,0,33.6L0,4C0,1.3,1.3,0,4,0z"/><text class="st2"><tspan style="white-space:pre" x="18" y="23.8">AdaBoost算法</tspan></text></g><g ed:layout="rightmap" ed:height="23.9" id="104" ed:width="140.4" ed:parentid="102" transform="matrix(1,0,0,1,377,21)"><path stroke-linejoin="round" stroke="#696969" fill="none" d="M0,23.9L140.4,23.9"/><text class="st3"><tspan style="white-space:pre" x="8" y="16.1">强可学习与弱可学习</tspan></text></g><g ed:layout="rightmap" ed:height="23.9" id="106" ed:width="222" ed:parentid="102" transform="matrix(1,0,0,1,377,82)"><path stroke-linejoin="round" stroke="#696969" fill="none" d="M0,23.9L222,23.9"/><text class="st3"><tspan style="white-space:pre" x="8" y="16.1">多个弱分类器组合成一个强分类器</tspan></text></g><g ed:layout="rightmap" ed:height="23.9" id="108" ed:width="140.4" ed:parentid="102" transform="matrix(1,0,0,1,377,51)"><path stroke-linejoin="round" stroke="#696969" fill="none" d="M0,23.9L140.4,23.9"/><text class="st3"><tspan style="white-space:pre" x="8" y="16.1">改变训练数据的权值</tspan></text></g><g ed:layout="rightmap" ed:height="37.6" id="110" ed:width="135" ed:parentid="101" transform="matrix(1,0,0,1,205,147)"><path stroke-linejoin="round" stroke="#ebecf3" fill="#ebecf3" d="M4,0L131,0C133.7,0,135,1.3,135,4L135,33.6C135,36.3,133.7,37.6,131,37.6L4,37.6C1.3,37.6,0,36.3,0,33.6L0,4C0,1.3,1.3,0,4,0z"/><text class="st2"><tspan style="white-space:pre" x="18" y="23.8">训练误差分析</tspan></text></g><g ed:layout="rightmap" ed:height="37.6" id="112" ed:width="135" ed:parentid="101" transform="matrix(1,0,0,1,205,250)"><path stroke-linejoin="round" stroke="#ebecf3" fill="#ebecf3" d="M4,0L131,0C133.7,0,135,1.3,135,4L135,33.6C135,36.3,133.7,37.6,131,37.6L4,37.6C1.3,37.6,0,36.3,0,33.6L0,4C0,1.3,1.3,0,4,0z"/><text class="st2"><tspan style="white-space:pre" x="18" y="23.8">算法另外解释</tspan></text></g><g ed:layout="rightmap" ed:height="37.6" id="114" ed:width="87" ed:parentid="101" transform="matrix(1,0,0,1,205,352)"><path stroke-linejoin="round" stroke="#ebecf3" fill="#ebecf3" d="M4,0L83,0C85.7,0,87,1.3,87,4L87,33.6C87,36.3,85.7,37.6,83,37.6L4,37.6C1.3,37.6,0,36.3,0,33.6L0,4C0,1.3,1.3,0,4,0z"/><text class="st2"><tspan style="white-space:pre" x="18" y="23.8">提升树</tspan></text></g><g ed:layout="rightmap" ed:height="23.9" id="116" ed:width="203.6" ed:parentid="110" transform="matrix(1,0,0,1,367,139)"><path stroke-linejoin="round" stroke="#696969" fill="none" d="M0,23.9L203.6,23.9"/><text class="st3"><tspan style="white-space:pre" x="8" y="16.1">AdaBoost算法训练误差有上界</tspan></text></g><g ed:layout="rightmap" ed:height="23.9" id="118" ed:width="222" ed:parentid="110" transform="matrix(1,0,0,1,367,169)"><path stroke-linejoin="round" stroke="#696969" fill="none" d="M0,23.9L222,23.9"/><text class="st3"><tspan style="white-space:pre" x="8" y="16.1">能适应弱分类器各自的训练误差率</tspan></text></g><g ed:layout="rightmap" ed:height="23.9" id="120" ed:width="113.2" ed:parentid="112" transform="matrix(1,0,0,1,367,226)"><path stroke-linejoin="round" stroke="#696969" fill="none" d="M0,23.9L113.2,23.9"/><text class="st3"><tspan style="white-space:pre" x="8" y="16.1">模型为加法模型</tspan></text></g><g ed:layout="rightmap" ed:height="23.9" id="122" ed:width="140.4" ed:parentid="112" transform="matrix(1,0,0,1,367,256)"><path stroke-linejoin="round" stroke="#696969" fill="none" d="M0,23.9L140.4,23.9"/><text class="st3"><tspan style="white-space:pre" x="8" y="16.1">损失函数为指数函数</tspan></text></g><g ed:layout="rightmap" ed:height="23.9" id="124" ed:width="167.6" ed:parentid="112" transform="matrix(1,0,0,1,367,287)"><path stroke-linejoin="round" stroke="#696969" fill="none" d="M0,23.9L167.6,23.9"/><text class="st3"><tspan style="white-space:pre" x="8" y="16.1">学习算法为前向分布算法</tspan></text></g><g ed:layout="rightmap" ed:height="23.9" id="126" ed:width="113.2" ed:parentid="114" transform="matrix(1,0,0,1,319,344)"><path stroke-linejoin="round" stroke="#696969" fill="none" d="M0,23.9L113.2,23.9"/><text class="st3"><tspan style="white-space:pre" x="8" y="16.1">基函数为决策树</tspan></text></g><g ed:layout="rightmap" ed:height="23.9" id="128" ed:width="99.59999999999999" ed:parentid="114" transform="matrix(1,0,0,1,319,374)"><path stroke-linejoin="round" stroke="#696969" fill="none" d="M0,23.9L99.6,23.9"/><text class="st3"><tspan style="white-space:pre" x="8" y="16.1">梯度提升算法</tspan></text></g><symbol id="plus"><path fill="url(#lg1)" d="M11,6C11,8.8,8.8,11,6,11C3.2,11,1,8.8,1,6C1,3.2,3.2,1,6,1C8.8,1,11,3.2,11,6z"/><path stroke-width="0.7" stroke="#46a000" fill="none" d="M11,6C11,8.8,8.8,11,6,11C3.2,11,1,8.8,1,6C1,3.2,3.2,1,6,1C8.8,1,11,3.2,11,6zM3,6L9,6M6,3L6,9"/></symbol><symbol id="minus"><path fill="url(#lg1)" d="M11,6C11,8.8,8.8,11,6,11C3.2,11,1,8.8,1,6C1,3.2,3.2,1,6,1C8.8,1,11,3.2,11,6z"/><path stroke-width="0.7" stroke="#46a000" fill="none" d="M11,6C11,8.8,8.8,11,6,11C3.2,11,1,8.8,1,6C1,3.2,3.2,1,6,1C8.8,1,11,3.2,11,6zM3,6L9,6"/></symbol><g ed:togtopicid="101" transform="translate(143,204)"><use xlink:href="#minus"/></g><g ed:togtopicid="102" transform="translate(351,57)"><use xlink:href="#minus"/></g><g ed:togtopicid="110" transform="translate(341,160)"><use xlink:href="#minus"/></g><g ed:togtopicid="112" transform="translate(341,262)"><use xlink:href="#minus"/></g><g ed:togtopicid="114" transform="translate(293,365)"><use xlink:href="#minus"/></g></svg>