<svg xmlns="http://www.w3.org/2000/svg" ed:hSpacing="30" xmlns:xlink="http://www.w3.org/1999/xlink" xmlns:ed="https://www.edrawsoft.cn/xml/2017/SVGExtensions/" id="page100" height="372" ed:vSpacing="30" xmlns:ev="http://www.w3.org/2001/xml-events" width="782" ed:name="Page-1" viewBox="0 0 782 372"><style type="text/css"><![CDATA[
g[ed\:togtopicid],g[ed\:hyperlink],g[ed\:comment],g[ed\:note] {cursor:pointer;}
g[id] {-moz-user-select: none;-ms-user-select: none;user-select: none;}
svg text::selection,svg tspan::selection{background-color: #4285f4;color: #ffffff;fill: #ffffff;}
.st2 {fill:#303030;font-family:微软雅黑;font-size:12pt}
.st3 {fill:#454545;font-family:微软雅黑;font-size:10pt}
.st1 {fill:#ffffff;font-family:微软雅黑;font-size:14pt}
]]></style><defs><linearGradient x1="0%" y1="0%" id="lg1" y2="100%" x2="0%"><stop stop-color="#ffffff" offset="0"/><stop stop-color="#f0f5f0" offset="0.25"/><stop stop-color="#e1ebe1" offset="0.75"/><stop stop-color="#c8d7c8" offset="1"/></linearGradient></defs><rect x="0" y="0" height="372" width="782" fill="#ffffff"/><path transform="matrix(1,0,0,1,171,125)" id="103" ed:tosuperid="102" stroke-linecap="round" stroke="#696969" stroke-linejoin="round" d="M-22,33.3C4.7,-2.9,18.4,-61.3,70.3,-61.3" fill="none" ed:parentid="101"/><path transform="matrix(1,0,0,1,171,176)" id="105" ed:tosuperid="104" stroke-linecap="round" stroke="#696969" stroke-linejoin="round" d="M7.4,-0.7C28,-5.5,47.7,-10,70.3,-10" fill="none" ed:parentid="101"/><path transform="matrix(1,0,0,1,171,220)" id="107" ed:tosuperid="106" stroke-linecap="round" stroke="#696969" stroke-linejoin="round" d="M-5.2,-5.6C16.8,12.8,36.7,33.6,70.3,33.6" fill="none" ed:parentid="101"/><path transform="matrix(1,0,0,1,171,259)" id="109" ed:tosuperid="108" stroke-linecap="round" stroke="#696969" stroke-linejoin="round" d="M-25.4,-45.1C2.5,-2.6,11.8,73.1,70.3,73.1" fill="none" ed:parentid="101"/><path transform="matrix(1,0,0,1,358,54)" id="111" ed:tosuperid="110" stroke-linecap="round" stroke="#696969" stroke-linejoin="round" d="M-13.5,9.2C-0.6,9.2,0.4,-9.2,13.5,-9.2" fill="none" ed:parentid="102"/><path transform="matrix(1,0,0,1,358,69)" id="113" ed:tosuperid="112" stroke-linecap="round" stroke="#696969" stroke-linejoin="round" d="M-13.5,-6C-1.3,-6,2.1,6,13.5,6" fill="none" ed:parentid="102"/><path transform="matrix(1,0,0,1,358,85)" id="116" ed:tosuperid="115" stroke-linecap="round" stroke="#696969" stroke-linejoin="round" d="M-13.5,-21.2C2,-21.2,-5.5,21.2,13.5,21.2" fill="none" ed:parentid="102"/><path transform="matrix(1,0,0,1,454,164)" id="118" ed:tosuperid="117" stroke-linecap="round" stroke="#696969" stroke-linejoin="round" d="M-13.5,1.6C-2.3,1.6,4.5,-1.6,13.5,-1.6" fill="none" ed:parentid="104"/><path transform="matrix(1,0,0,1,454,179)" id="120" ed:tosuperid="119" stroke-linecap="round" stroke="#696969" stroke-linejoin="round" d="M-13.5,-13.6C0.4,-13.6,-1.9,13.6,13.5,13.6" fill="none" ed:parentid="104"/><path transform="matrix(1,0,0,1,486,252)" id="122" ed:tosuperid="121" stroke-linecap="round" stroke="#696969" stroke-linejoin="round" d="M-13.5,1.6C-2.3,1.6,4.5,-1.6,13.5,-1.6" fill="none" ed:parentid="106"/><path transform="matrix(1,0,0,1,486,267)" id="124" ed:tosuperid="123" stroke-linecap="round" stroke="#696969" stroke-linejoin="round" d="M-13.5,-13.6C0.4,-13.6,-1.9,13.6,13.5,13.6" fill="none" ed:parentid="106"/><g transform="matrix(1,0,0,1,23,158)" ed:width="155.4" ed:topictype="mainidea" id="101" ed:height="56" ed:layout="map"><path stroke-width="3" stroke="#435fbc" stroke-linejoin="round" d="M4,0L151.4,0C154.1,0,155.4,1.3,155.4,4L155.4,52C155.4,54.7,154.1,56,151.4,56L4,56C1.3,56,0,54.7,0,52L0,4C0,1.3,1.3,0,4,0z" fill="#435fbc"/><text class="st1"><tspan x="21" style="white-space:pre" y="34.3">朴素贝叶斯法</tspan></text></g><g transform="matrix(1,0,0,1,241,45)" ed:width="103" id="102" ed:height="37.6" ed:layout="rightmap" ed:parentid="101"><path stroke="#ebecf3" stroke-linejoin="round" d="M4,0L99,0C101.7,0,103,1.3,103,4L103,33.6C103,36.3,101.7,37.6,99,37.6L4,37.6C1.3,37.6,0,36.3,0,33.6L0,4C0,1.3,1.3,0,4,0z" fill="#ebecf3"/><text class="st2"><tspan x="18" style="white-space:pre" y="23.9">基本方法</tspan></text></g><g transform="matrix(1,0,0,1,241,147)" ed:width="199" id="104" ed:height="37.6" ed:layout="rightmap" ed:parentid="101"><path stroke="#ebecf3" stroke-linejoin="round" d="M4,0L195,0C197.7,0,199,1.3,199,4L199,33.6C199,36.3,197.7,37.6,195,37.6L4,37.6C1.3,37.6,0,36.3,0,33.6L0,4C0,1.3,1.3,0,4,0z" fill="#ebecf3"/><text class="st2"><tspan x="18" style="white-space:pre" y="23.9">后验概率最大化的含义</tspan></text></g><g transform="matrix(1,0,0,1,241,234)" ed:width="231" id="106" ed:height="37.6" ed:layout="rightmap" ed:parentid="101"><path stroke="#ebecf3" stroke-linejoin="round" d="M4,0L227,0C229.7,0,231,1.3,231,4L231,33.6C231,36.3,229.7,37.6,227,37.6L4,37.6C1.3,37.6,0,36.3,0,33.6L0,4C0,1.3,1.3,0,4,0z" fill="#ebecf3"/><text class="st2"><tspan x="18" style="white-space:pre" y="23.9">极大似然估计与贝叶斯估计</tspan></text></g><g transform="matrix(1,0,0,1,241,313)" ed:width="103" id="108" ed:height="37.6" ed:layout="rightmap" ed:parentid="101"><path stroke="#ebecf3" stroke-linejoin="round" d="M4,0L99,0C101.7,0,103,1.3,103,4L103,33.6C103,36.3,101.7,37.6,99,37.6L4,37.6C1.3,37.6,0,36.3,0,33.6L0,4C0,1.3,1.3,0,4,0z" fill="#ebecf3"/><text class="st2"><tspan x="18" style="white-space:pre" y="23.9">算法描述</tspan></text></g><g transform="matrix(1,0,0,1,371,21)" ed:width="194.8" id="110" ed:height="23.9" ed:layout="rightmap" ed:parentid="102"><path stroke="#696969" stroke-linejoin="round" d="M0,23.9L194.8,23.9" fill="none"/><text class="st3"><tspan x="8" style="white-space:pre" y="16.1">先验概率分布与条件概率分布</tspan></text></g><g transform="matrix(1,0,0,1,371,51)" ed:width="113.2" id="112" ed:height="23.9" ed:layout="rightmap" ed:parentid="102"><path stroke="#696969" stroke-linejoin="round" d="M0,23.9L113.2,23.9" fill="none"/><text class="st3"><tspan x="8" style="white-space:pre" y="16.1">条件独立性假设</tspan></text></g><g transform="matrix(1,0,0,1,371,82)" ed:width="222" id="115" ed:height="23.9" ed:layout="rightmap" ed:parentid="102"><path stroke="#696969" stroke-linejoin="round" d="M0,23.9L222,23.9" fill="none"/><text class="st3"><tspan x="8" style="white-space:pre" y="16.1">由贝叶斯定理，计算后验概率分布</tspan></text></g><g transform="matrix(1,0,0,1,467,139)" ed:width="208.4" id="117" ed:height="23.9" ed:layout="rightmap" ed:parentid="104"><path stroke="#696969" stroke-linejoin="round" d="M0,23.9L208.4,23.9" fill="none"/><text class="st3"><tspan x="8" style="white-space:pre" y="16.1">将实例分到后验概率最大的类中</tspan></text></g><g transform="matrix(1,0,0,1,467,169)" ed:width="257.2" id="119" ed:height="23.9" ed:layout="rightmap" ed:parentid="104"><path stroke="#696969" stroke-linejoin="round" d="M0,23.9L257.2,23.9" fill="none"/><text class="st3"><tspan x="8" style="white-space:pre" y="16.1">等价于期望风险最小化（0-1）损失函数</tspan></text></g><g transform="matrix(1,0,0,1,499,226)" ed:width="208.4" id="121" ed:height="23.9" ed:layout="rightmap" ed:parentid="106"><path stroke="#696969" stroke-linejoin="round" d="M0,23.9L208.4,23.9" fill="none"/><text class="st3"><tspan x="8" style="white-space:pre" y="16.1">对先验概率和条件概率进行估计</tspan></text></g><g transform="matrix(1,0,0,1,499,256)" ed:width="262" id="123" ed:height="23.9" ed:layout="rightmap" ed:parentid="106"><path stroke="#696969" stroke-linejoin="round" d="M0,23.9L262,23.9" fill="none"/><text class="st3"><tspan x="8" style="white-space:pre" y="16.1">拉普拉斯平滑（Laplacian smoothing）</tspan></text></g><symbol id="plus"><path d="M11,6C11,8.8,8.8,11,6,11C3.2,11,1,8.8,1,6C1,3.2,3.2,1,6,1C8.8,1,11,3.2,11,6z" fill="url(#lg1)"/><path stroke-width="0.7" stroke="#46a000" d="M11,6C11,8.8,8.8,11,6,11C3.2,11,1,8.8,1,6C1,3.2,3.2,1,6,1C8.8,1,11,3.2,11,6zM3,6L9,6M6,3L6,9" fill="none"/></symbol><symbol id="minus"><path d="M11,6C11,8.8,8.8,11,6,11C3.2,11,1,8.8,1,6C1,3.2,3.2,1,6,1C8.8,1,11,3.2,11,6z" fill="url(#lg1)"/><path stroke-width="0.7" stroke="#46a000" d="M11,6C11,8.8,8.8,11,6,11C3.2,11,1,8.8,1,6C1,3.2,3.2,1,6,1C8.8,1,11,3.2,11,6zM3,6L9,6" fill="none"/></symbol><g transform="translate(179,180)" ed:togtopicid="101"><use xlink:href="#minus"/></g><g transform="translate(345,57)" ed:togtopicid="102"><use xlink:href="#minus"/></g><g transform="translate(441,160)" ed:togtopicid="104"><use xlink:href="#minus"/></g><g transform="translate(473,247)" ed:togtopicid="106"><use xlink:href="#minus"/></g></svg>