<svg ed:name="Page-1" xmlns:xlink="http://www.w3.org/1999/xlink" xmlns:ev="http://www.w3.org/2001/xml-events" height="706" viewBox="0 0 1006 706" width="1006" id="page100" xmlns:ed="https://www.edrawsoft.cn/xml/2017/SVGExtensions/" xmlns="http://www.w3.org/2000/svg" ed:hSpacing="30" ed:vSpacing="30"><style type="text/css"><![CDATA[
g[ed\:togtopicid],g[ed\:hyperlink],g[ed\:comment],g[ed\:note] {cursor:pointer;}
g[id] {-moz-user-select: none;-ms-user-select: none;user-select: none;}
svg text::selection,svg tspan::selection{background-color: #4285f4;color: #ffffff;fill: #ffffff;}
.st2 {fill:#303030;font-family:微软雅黑;font-size:12pt}
.st3 {fill:#454545;font-family:微软雅黑;font-size:10pt}
.st1 {fill:#ffffff;font-family:微软雅黑;font-size:14pt}
]]></style><defs><linearGradient y1="0%" x2="0%" y2="100%" x1="0%" id="lg1"><stop offset="0" stop-color="#ffffff"/><stop offset="0.25" stop-color="#f0f5f0"/><stop offset="0.75" stop-color="#e1ebe1"/><stop offset="1" stop-color="#c8d7c8"/></linearGradient></defs><rect height="706" x="0" y="0" width="1006" fill="#ffffff"/><path ed:tosuperid="102" stroke-linejoin="round" stroke-linecap="round" stroke="#696969" id="103" ed:parentid="101" fill="none" transform="matrix(1,0,0,1,254,196)" d="M-50.5,128.7C0.8,51.8,-15.7,-156.7,98,-156.7"/><path ed:tosuperid="104" stroke-linejoin="round" stroke-linecap="round" stroke="#696969" id="105" ed:parentid="101" fill="none" transform="matrix(1,0,0,1,254,259)" d="M-41.8,66.4C2.8,13.8,15.1,-94.4,98,-94.4"/><path ed:tosuperid="106" stroke-linejoin="round" stroke-linecap="round" stroke="#696969" id="107" ed:parentid="101" fill="none" transform="matrix(1,0,0,1,254,371)" d="M35,8.5C54.8,13.7,75.1,17.6,98,17.6"/><path ed:tosuperid="108" stroke-linejoin="round" stroke-linecap="round" stroke="#696969" id="109" ed:parentid="101" fill="none" transform="matrix(1,0,0,1,254,483)" d="M-47.7,-101.7C0.8,-34.6,-3.1,129.7,98,129.7"/><path ed:tosuperid="110" stroke-linejoin="round" stroke-linecap="round" stroke="#696969" id="111" ed:parentid="108" fill="none" transform="matrix(1,0,0,1,484,596)" d="M-13.5,16.8C1.1,16.8,-3.5,-16.8,13.5,-16.8"/><path ed:tosuperid="112" stroke-linejoin="round" stroke-linecap="round" stroke="#696969" id="113" ed:parentid="108" fill="none" transform="matrix(1,0,0,1,484,634)" d="M-13.5,-21.2C2,-21.2,-5.5,21.2,13.5,21.2"/><path ed:tosuperid="120" stroke-linejoin="round" stroke-linecap="round" stroke="#696969" id="121" ed:parentid="104" fill="none" transform="matrix(1,0,0,1,500,140)" d="M-13.5,24.4C2.6,24.4,-6.9,-24.4,13.5,-24.4"/><path ed:tosuperid="122" stroke-linejoin="round" stroke-linecap="round" stroke="#696969" id="123" ed:parentid="104" fill="none" transform="matrix(1,0,0,1,500,163)" d="M-13.5,1.6C-2.3,1.6,4.5,-1.6,13.5,-1.6"/><path ed:tosuperid="126" stroke-linejoin="round" stroke-linecap="round" stroke="#696969" id="127" ed:parentid="122" fill="none" transform="matrix(1,0,0,1,681,154)" d="M-13.5,7.6C-0.9,7.6,1.3,-7.6,13.5,-7.6"/><path ed:tosuperid="128" stroke-linejoin="round" stroke-linecap="round" stroke="#696969" id="129" ed:parentid="122" fill="none" transform="matrix(1,0,0,1,681,169)" d="M-13.5,-7.6C-0.9,-7.6,1.3,7.6,13.5,7.6"/><path ed:tosuperid="130" stroke-linejoin="round" stroke-linecap="round" stroke="#696969" id="131" ed:parentid="104" fill="none" transform="matrix(1,0,0,1,500,186)" d="M-13.5,-21.2C2,-21.2,-5.5,21.2,13.5,21.2"/><path ed:tosuperid="132" stroke-linejoin="round" stroke-linecap="round" stroke="#696969" id="133" ed:parentid="130" fill="none" transform="matrix(1,0,0,1,600,207)" d="M-13.5,0C-2.7,0,5.4,0,13.5,0"/><path ed:tosuperid="134" stroke-linejoin="round" stroke-linecap="round" stroke="#696969" id="135" ed:parentid="104" fill="none" transform="matrix(1,0,0,1,500,201)" d="M-13.5,-36.4C4.4,-36.4,-11.1,36.4,13.5,36.4"/><path ed:tosuperid="136" stroke-linejoin="round" stroke-linecap="round" stroke="#696969" id="137" ed:parentid="106" fill="none" transform="matrix(1,0,0,1,484,356)" d="M-13.5,32C3.8,32,-9.8,-32,13.5,-32"/><path ed:tosuperid="138" stroke-linejoin="round" stroke-linecap="round" stroke="#696969" id="139" ed:parentid="136" fill="none" transform="matrix(1,0,0,1,597,309)" d="M-13.5,15.2C0.8,15.2,-2.7,-15.2,13.5,-15.2"/><path ed:tosuperid="140" stroke-linejoin="round" stroke-linecap="round" stroke="#696969" id="141" ed:parentid="136" fill="none" transform="matrix(1,0,0,1,597,340)" d="M-13.5,-15.2C0.8,-15.2,-2.7,15.2,13.5,15.2"/><path ed:tosuperid="142" stroke-linejoin="round" stroke-linecap="round" stroke="#696969" id="143" ed:parentid="106" fill="none" transform="matrix(1,0,0,1,484,394)" d="M-13.5,-6C-1.3,-6,2.1,6,13.5,6"/><path ed:tosuperid="144" stroke-linejoin="round" stroke-linecap="round" stroke="#696969" id="145" ed:parentid="136" fill="none" transform="matrix(1,0,0,1,597,324)" d="M-13.5,0C-2.7,0,5.4,0,13.5,0"/><path ed:tosuperid="146" stroke-linejoin="round" stroke-linecap="round" stroke="#696969" id="147" ed:parentid="142" fill="none" transform="matrix(1,0,0,1,597,393)" d="M-13.5,7.6C-0.9,7.6,1.3,-7.6,13.5,-7.6"/><path ed:tosuperid="148" stroke-linejoin="round" stroke-linecap="round" stroke="#696969" id="149" ed:parentid="142" fill="none" transform="matrix(1,0,0,1,597,408)" d="M-13.5,-7.6C-0.9,-7.6,1.3,7.6,13.5,7.6"/><path ed:tosuperid="150" stroke-linejoin="round" stroke-linecap="round" stroke="#696969" id="151" ed:parentid="106" fill="none" transform="matrix(1,0,0,1,484,432)" d="M-13.5,-44C5.1,-44,-12.7,44,13.5,44"/><path ed:tosuperid="152" stroke-linejoin="round" stroke-linecap="round" stroke="#696969" id="153" ed:parentid="150" fill="none" transform="matrix(1,0,0,1,584,461)" d="M-13.5,15.2C0.8,15.2,-2.7,-15.2,13.5,-15.2"/><path ed:tosuperid="154" stroke-linejoin="round" stroke-linecap="round" stroke="#696969" id="155" ed:parentid="150" fill="none" transform="matrix(1,0,0,1,584,476)" d="M-13.5,0C-2.7,0,5.4,0,13.5,0"/><path ed:tosuperid="156" stroke-linejoin="round" stroke-linecap="round" stroke="#696969" id="157" ed:parentid="150" fill="none" transform="matrix(1,0,0,1,584,492)" d="M-13.5,-15.2C0.8,-15.2,-2.7,15.2,13.5,15.2"/><path ed:tosuperid="158" stroke-linejoin="round" stroke-linecap="round" stroke="#696969" id="159" ed:parentid="112" fill="none" transform="matrix(1,0,0,1,584,640)" d="M-13.5,15.2C0.8,15.2,-2.7,-15.2,13.5,-15.2"/><path ed:tosuperid="160" stroke-linejoin="round" stroke-linecap="round" stroke="#696969" id="161" ed:parentid="112" fill="none" transform="matrix(1,0,0,1,584,655)" d="M-13.5,0C-2.7,0,5.4,0,13.5,0"/><path ed:tosuperid="162" stroke-linejoin="round" stroke-linecap="round" stroke="#696969" id="163" ed:parentid="112" fill="none" transform="matrix(1,0,0,1,584,670)" d="M-13.5,-15.2C0.8,-15.2,-2.7,15.2,13.5,15.2"/><path ed:tosuperid="164" stroke-linejoin="round" stroke-linecap="round" stroke="#696969" id="165" ed:parentid="110" fill="none" transform="matrix(1,0,0,1,652,571)" d="M-13.5,7.6C-0.9,7.6,1.3,-7.6,13.5,-7.6"/><path ed:tosuperid="166" stroke-linejoin="round" stroke-linecap="round" stroke="#696969" id="167" ed:parentid="110" fill="none" transform="matrix(1,0,0,1,652,587)" d="M-13.5,-7.6C-0.9,-7.6,1.3,7.6,13.5,7.6"/><g ed:layout="map" ed:height="56" ed:topictype="mainidea" id="101" ed:width="265.8" transform="matrix(1,0,0,1,23,325)"><path stroke-linejoin="round" stroke-width="3" stroke="#435fbc" fill="#435fbc" d="M4,0L261.8,0C264.5,0,265.8,1.3,265.8,4L265.8,52C265.8,54.7,264.5,56,261.8,56L4,56C1.3,56,0,54.7,0,52L0,4C0,1.3,1.3,0,4,0z"/><text class="st1"><tspan style="white-space:pre" x="21" y="34.3">逻辑斯蒂回归与最大熵模型</tspan></text></g><g ed:layout="rightmap" ed:height="37.6" id="102" ed:width="183" ed:parentid="101" transform="matrix(1,0,0,1,352,21)"><path stroke-linejoin="round" stroke="#ebecf3" fill="#ebecf3" d="M4,0L179,0C181.7,0,183,1.3,183,4L183,33.6C183,36.3,181.7,37.6,179,37.6L4,37.6C1.3,37.6,0,36.3,0,33.6L0,4C0,1.3,1.3,0,4,0z"/><text class="st2"><tspan style="white-space:pre" x="18" y="23.8">都属于对数线性模型</tspan></text></g><g ed:layout="rightmap" ed:height="37.6" id="104" ed:width="135" ed:parentid="101" transform="matrix(1,0,0,1,352,146)"><path stroke-linejoin="round" stroke="#ebecf3" fill="#ebecf3" d="M4,0L131,0C133.7,0,135,1.3,135,4L135,33.6C135,36.3,133.7,37.6,131,37.6L4,37.6C1.3,37.6,0,36.3,0,33.6L0,4C0,1.3,1.3,0,4,0z"/><text class="st2"><tspan style="white-space:pre" x="18" y="23.8">逻辑斯蒂回归</tspan></text></g><g ed:layout="rightmap" ed:height="37.6" id="106" ed:width="119" ed:parentid="101" transform="matrix(1,0,0,1,352,370)"><path stroke-linejoin="round" stroke="#ebecf3" fill="#ebecf3" d="M4,0L115,0C117.7,0,119,1.3,119,4L119,33.6C119,36.3,117.7,37.6,115,37.6L4,37.6C1.3,37.6,0,36.3,0,33.6L0,4C0,1.3,1.3,0,4,0z"/><text class="st2"><tspan style="white-space:pre" x="18" y="23.8">最大熵模型</tspan></text></g><g ed:layout="rightmap" ed:height="37.6" id="108" ed:width="119" ed:parentid="101" transform="matrix(1,0,0,1,352,594)"><path stroke-linejoin="round" stroke="#ebecf3" fill="#ebecf3" d="M4,0L115,0C117.7,0,119,1.3,119,4L119,33.6C119,36.3,117.7,37.6,115,37.6L4,37.6C1.3,37.6,0,36.3,0,33.6L0,4C0,1.3,1.3,0,4,0z"/><text class="st2"><tspan style="white-space:pre" x="18" y="23.8">最优化算法</tspan></text></g><g ed:layout="rightmap" ed:height="23.9" id="110" ed:width="140.4" ed:parentid="108" transform="matrix(1,0,0,1,498,555)"><path stroke-linejoin="round" stroke="#696969" fill="none" d="M0,23.9L140.4,23.9"/><text class="st3"><tspan style="white-space:pre" x="8" y="16.1">改进的迭代尺度算法</tspan></text></g><g ed:layout="rightmap" ed:height="23.9" id="112" ed:width="72.40000000000001" ed:parentid="108" transform="matrix(1,0,0,1,498,631)"><path stroke-linejoin="round" stroke="#696969" fill="none" d="M0,23.9L72.4,23.9"/><text class="st3"><tspan style="white-space:pre" x="8" y="16.1">拟牛顿法</tspan></text></g><g ed:layout="rightmap" ed:height="23.9" id="120" ed:width="99.59999999999999" ed:parentid="104" transform="matrix(1,0,0,1,514,92)"><path stroke-linejoin="round" stroke="#696969" fill="none" d="M0,23.9L99.6,23.9"/><text class="st3"><tspan style="white-space:pre" x="8" y="16.1">逻辑斯蒂分布</tspan></text></g><g ed:layout="rightmap" ed:height="23.9" id="122" ed:width="154" ed:parentid="104" transform="matrix(1,0,0,1,514,137)"><path stroke-linejoin="round" stroke="#696969" fill="none" d="M0,23.9L154,23.9"/><text class="st3"><tspan style="white-space:pre" x="8" y="16.1">二项逻辑斯蒂回归模型</tspan></text></g><g ed:layout="rightmap" ed:height="23.9" id="126" ed:width="72.40000000000001" ed:parentid="122" transform="matrix(1,0,0,1,695,122)"><path stroke-linejoin="round" stroke="#696969" fill="none" d="M0,23.9L72.4,23.9"/><text class="st3"><tspan style="white-space:pre" x="8" y="16.1">对数几率</tspan></text></g><g ed:layout="rightmap" ed:height="23.9" id="128" ed:width="290" ed:parentid="122" transform="matrix(1,0,0,1,695,152)"><path stroke-linejoin="round" stroke="#696969" fill="none" d="M0,23.9L290,23.9"/><text class="st3"><tspan style="white-space:pre" x="8" y="16.1">条件概率分布的图像与逻辑斯蒂分布图像一致</tspan></text></g><g ed:layout="rightmap" ed:height="23.9" id="130" ed:width="72.40000000000001" ed:parentid="104" transform="matrix(1,0,0,1,514,183)"><path stroke-linejoin="round" stroke="#696969" fill="none" d="M0,23.9L72.4,23.9"/><text class="st3"><tspan style="white-space:pre" x="8" y="16.1">参数估计</tspan></text></g><g ed:layout="rightmap" ed:height="23.9" id="132" ed:width="113.2" ed:parentid="130" transform="matrix(1,0,0,1,613,183)"><path stroke-linejoin="round" stroke="#696969" fill="none" d="M0,23.9L113.2,23.9"/><text class="st3"><tspan style="white-space:pre" x="8" y="16.1">极大似然估计法</tspan></text></g><g ed:layout="rightmap" ed:height="23.9" id="134" ed:width="126.8" ed:parentid="104" transform="matrix(1,0,0,1,514,213)"><path stroke-linejoin="round" stroke="#696969" fill="none" d="M0,23.9L126.8,23.9"/><text class="st3"><tspan style="white-space:pre" x="8" y="16.1">多项逻辑斯蒂回归</tspan></text></g><g ed:layout="rightmap" ed:height="23.9" id="136" ed:width="86" ed:parentid="106" transform="matrix(1,0,0,1,498,300)"><path stroke-linejoin="round" stroke="#696969" fill="none" d="M0,23.9L86,23.9"/><text class="st3"><tspan style="white-space:pre" x="8" y="16.1">最大熵原理</tspan></text></g><g ed:layout="rightmap" ed:height="23.9" id="138" ed:width="198" ed:parentid="136" transform="matrix(1,0,0,1,611,270)"><path stroke-linejoin="round" stroke="#696969" fill="none" d="M0,23.9L198,23.9"/><text class="st3"><tspan style="white-space:pre" x="8" y="16.1">当 X 服从均匀分布时，熵最大</tspan></text></g><g ed:layout="rightmap" ed:height="23.9" id="140" ed:width="208.4" ed:parentid="136" transform="matrix(1,0,0,1,611,331)"><path stroke-linejoin="round" stroke="#696969" fill="none" d="M0,23.9L208.4,23.9"/><text class="st3"><tspan style="white-space:pre" x="8" y="16.1">通过熵的最大化来表示等可能性</tspan></text></g><g ed:layout="rightmap" ed:height="23.9" id="142" ed:width="86" ed:parentid="106" transform="matrix(1,0,0,1,498,376)"><path stroke-linejoin="round" stroke="#696969" fill="none" d="M0,23.9L86,23.9"/><text class="st3"><tspan style="white-space:pre" x="8" y="16.1">最大熵模型</tspan></text></g><g ed:layout="rightmap" ed:height="23.9" id="144" ed:width="99.59999999999999" ed:parentid="136" transform="matrix(1,0,0,1,611,300)"><path stroke-linejoin="round" stroke="#696969" fill="none" d="M0,23.9L99.6,23.9"/><text class="st3"><tspan style="white-space:pre" x="8" y="16.1">满足约束条件</tspan></text></g><g ed:layout="rightmap" ed:height="23.9" id="146" ed:width="303.6" ed:parentid="142" transform="matrix(1,0,0,1,611,361)"><path stroke-linejoin="round" stroke="#696969" fill="none" d="M0,23.9L303.6,23.9"/><text class="st3"><tspan style="white-space:pre" x="8" y="16.1">特征函数关于模型和经验分布的两个期望值相等</tspan></text></g><g ed:layout="rightmap" ed:height="23.9" id="148" ed:width="250" ed:parentid="142" transform="matrix(1,0,0,1,611,392)"><path stroke-linejoin="round" stroke="#696969" fill="none" d="M0,23.9L250,23.9"/><text class="st3"><tspan style="white-space:pre" x="8" y="16.1">满足约束条件的条件熵H(P)最大的模型</tspan></text></g><g ed:layout="rightmap" ed:height="23.9" id="150" ed:width="72.40000000000001" ed:parentid="106" transform="matrix(1,0,0,1,498,452)"><path stroke-linejoin="round" stroke="#696969" fill="none" d="M0,23.9L72.4,23.9"/><text class="st3"><tspan style="white-space:pre" x="8" y="16.1">参数学习</tspan></text></g><g ed:layout="rightmap" ed:height="23.9" id="152" ed:width="126.8" ed:parentid="150" transform="matrix(1,0,0,1,597,422)"><path stroke-linejoin="round" stroke="#696969" fill="none" d="M0,23.9L126.8,23.9"/><text class="st3"><tspan style="white-space:pre" x="8" y="16.1">对偶函数的极大化</tspan></text></g><g ed:layout="rightmap" ed:height="23.9" id="154" ed:width="99.59999999999999" ed:parentid="150" transform="matrix(1,0,0,1,597,452)"><path stroke-linejoin="round" stroke="#696969" fill="none" d="M0,23.9L99.6,23.9"/><text class="st3"><tspan style="white-space:pre" x="8" y="16.1">极大似然估计</tspan></text></g><g ed:layout="rightmap" ed:height="23.9" id="156" ed:width="208.4" ed:parentid="150" transform="matrix(1,0,0,1,597,483)"><path stroke-linejoin="round" stroke="#696969" fill="none" d="M0,23.9L208.4,23.9"/><text class="st3"><tspan style="white-space:pre" x="8" y="16.1">最大熵模型，以上两种方法等价</tspan></text></g><g ed:layout="rightmap" ed:height="23.9" id="158" ed:width="194.8" ed:parentid="112" transform="matrix(1,0,0,1,597,601)"><path stroke-linejoin="round" stroke="#696969" fill="none" d="M0,23.9L194.8,23.9"/><text class="st3"><tspan style="white-space:pre" x="8" y="16.1">用正定对称矩阵代替黑塞矩阵</tspan></text></g><g ed:layout="rightmap" ed:height="23.9" id="160" ed:width="86" ed:parentid="112" transform="matrix(1,0,0,1,597,631)"><path stroke-linejoin="round" stroke="#696969" fill="none" d="M0,23.9L86,23.9"/><text class="st3"><tspan style="white-space:pre" x="8" y="16.1">拟牛顿条件</tspan></text></g><g ed:layout="rightmap" ed:height="23.9" id="162" ed:width="118.8" ed:parentid="112" transform="matrix(1,0,0,1,597,661)"><path stroke-linejoin="round" stroke="#696969" fill="none" d="M0,23.9L118.8,23.9"/><text class="st3"><tspan style="white-space:pre" x="8" y="16.1">DFP与BFGS算法</tspan></text></g><g ed:layout="rightmap" ed:height="23.9" id="164" ed:width="238.8" ed:parentid="110" transform="matrix(1,0,0,1,665,540)"><path stroke-linejoin="round" stroke="#696969" fill="none" d="M0,23.9L238.8,23.9"/><text class="st3"><tspan style="white-space:pre" x="8" y="16.1">找到合适 δ 使对数似然函数下界提高</tspan></text></g><g ed:layout="rightmap" ed:height="23.9" id="166" ed:width="180.4" ed:parentid="110" transform="matrix(1,0,0,1,665,570)"><path stroke-linejoin="round" stroke="#696969" fill="none" d="M0,23.9L180.4,23.9"/><text class="st3"><tspan style="white-space:pre" x="8" y="16.1">每次只优化其中一个变量δi</tspan></text></g><symbol id="plus"><path fill="url(#lg1)" d="M11,6C11,8.8,8.8,11,6,11C3.2,11,1,8.8,1,6C1,3.2,3.2,1,6,1C8.8,1,11,3.2,11,6z"/><path stroke-width="0.7" stroke="#46a000" fill="none" d="M11,6C11,8.8,8.8,11,6,11C3.2,11,1,8.8,1,6C1,3.2,3.2,1,6,1C8.8,1,11,3.2,11,6zM3,6L9,6M6,3L6,9"/></symbol><symbol id="minus"><path fill="url(#lg1)" d="M11,6C11,8.8,8.8,11,6,11C3.2,11,1,8.8,1,6C1,3.2,3.2,1,6,1C8.8,1,11,3.2,11,6z"/><path stroke-width="0.7" stroke="#46a000" fill="none" d="M11,6C11,8.8,8.8,11,6,11C3.2,11,1,8.8,1,6C1,3.2,3.2,1,6,1C8.8,1,11,3.2,11,6zM3,6L9,6"/></symbol><g ed:togtopicid="101" transform="translate(290,347)"><use xlink:href="#minus"/></g><g ed:togtopicid="104" transform="translate(488,158)"><use xlink:href="#minus"/></g><g ed:togtopicid="106" transform="translate(472,382)"><use xlink:href="#minus"/></g><g ed:togtopicid="108" transform="translate(472,607)"><use xlink:href="#minus"/></g><g ed:togtopicid="110" transform="translate(639,561)"><use xlink:href="#minus"/></g><g ed:togtopicid="112" transform="translate(571,637)"><use xlink:href="#minus"/></g><g ed:togtopicid="122" transform="translate(669,143)"><use xlink:href="#minus"/></g><g ed:togtopicid="130" transform="translate(587,189)"><use xlink:href="#minus"/></g><g ed:togtopicid="136" transform="translate(585,306)"><use xlink:href="#minus"/></g><g ed:togtopicid="142" transform="translate(585,382)"><use xlink:href="#minus"/></g><g ed:togtopicid="150" transform="translate(571,458)"><use xlink:href="#minus"/></g></svg>